<svg id="Ebene_1" data-name="Ebene 1" xmlns="http://www.w3.org/2000/svg" width="276.87" height="53" viewBox="0 0 276.87 53"><defs><style>.cls-1{fill:#8499a3;}</style></defs><g id="Englisch"><path class="cls-1" d="M36.34,53H33.86A2.65,2.65,0,0,1,31.79,52,2.88,2.88,0,0,1,31,50.1V2.81A2.81,2.81,0,0,1,31.79.94,2.66,2.66,0,0,1,33.87,0h2.47a2.56,2.56,0,0,1,2.07,1,2.93,2.93,0,0,1,.7,1.83V50.1a3,3,0,0,1-.7,1.89A2.6,2.6,0,0,1,36.34,53Z"/><path class="cls-1" d="M15.14,53H12.7A2.63,2.63,0,0,1,10.62,52a2.85,2.85,0,0,1-.74-1.92v-42H2.8A2.77,2.77,0,0,1,.94,7.3a2.62,2.62,0,0,1-.94-2V2.81A2.61,2.61,0,0,1,1,.69,2.92,2.92,0,0,1,2.8,0H24.93a3,3,0,0,1,1.9.69,2.66,2.66,0,0,1,1,2.11V5.28a2.61,2.61,0,0,1-.94,2.07,2.86,2.86,0,0,1-2,.7h-7V50.1a3,3,0,0,1-.69,1.9A2.59,2.59,0,0,1,15.14,53Z"/><path class="cls-1" d="M58.53,53H48.15A2.65,2.65,0,0,1,46.08,52a2.88,2.88,0,0,1-.75-1.93V2.81a2.61,2.61,0,0,1,1-2.12A2.92,2.92,0,0,1,48.13,0h8.14a44.15,44.15,0,0,1,5.39.3,11.1,11.1,0,0,1,4.15,1.29,9.92,9.92,0,0,1,4.31,4.88,16.92,16.92,0,0,1,1.39,6.8c0,3.94-.41,6.73-1.26,8.53a9.21,9.21,0,0,1-1.84,2.58l-.41.34a8.11,8.11,0,0,1,3.13,3.53,19.12,19.12,0,0,1,1.46,8A47.33,47.33,0,0,1,72.22,42a14.09,14.09,0,0,1-1.88,5.47,10.92,10.92,0,0,1-4.33,4A16.33,16.33,0,0,1,58.53,53Zm-5.14-8h4.75A10.71,10.71,0,0,0,61,44.58a3.78,3.78,0,0,0,1.84-1.14,6,6,0,0,0,1.21-2.53,20.45,20.45,0,0,0,.47-4.81A11.35,11.35,0,0,0,64,32.4a4,4,0,0,0-1.34-1.91,5.65,5.65,0,0,0-2.35-1,19,19,0,0,0-3.69-.3H53.39Zm0-23.76h3.38a22.81,22.81,0,0,0,3-.17,4,4,0,0,0,2-.78,4.39,4.39,0,0,0,1.3-2.07,15.05,15.05,0,0,0,.54-4.58,7.45,7.45,0,0,0-.53-3.2,3.53,3.53,0,0,0-1.33-1.53,5,5,0,0,0-2.2-.69C58.52,8.07,57.4,8,56.2,8H53.39Z"/><path class="cls-1" d="M91.93,11.64a.36.36,0,0,1-.12.28.42.42,0,0,1-.28.1H87.38a.34.34,0,0,1-.28-.12.54.54,0,0,1-.11-.28V.56A.47.47,0,0,1,87.1.3a.34.34,0,0,1,.28-.13H88a.32.32,0,0,1,.28.13.46.46,0,0,1,.1.26V10.68h3.22a.43.43,0,0,1,.28.11.33.33,0,0,1,.12.28Z"/><path class="cls-1" d="M99.15,11.64a.37.37,0,0,1-.13.28.38.38,0,0,1-.27.1H94.33a.31.31,0,0,1-.27-.12.39.39,0,0,1-.11-.28V.56A.36.36,0,0,1,94.06.3a.3.3,0,0,1,.27-.13h4.3a.48.48,0,0,1,.28.1A.35.35,0,0,1,99,.56v.57a.36.36,0,0,1-.12.28.48.48,0,0,1-.28.1H95.29V5.23h2.87a.48.48,0,0,1,.28.1.35.35,0,0,1,.12.29v.57a.36.36,0,0,1-.12.27.43.43,0,0,1-.28.11H95.29v4.11h3.46a.39.39,0,0,1,.27.11.34.34,0,0,1,.13.28Z"/><path class="cls-1" d="M102.13,12a.33.33,0,0,1-.28-.12.48.48,0,0,1-.1-.28V.56a.4.4,0,0,1,.1-.26.34.34,0,0,1,.28-.13h.57A.33.33,0,0,1,103,.3a.4.4,0,0,1,.1.26V11.62a.48.48,0,0,1-.1.28.35.35,0,0,1-.29.12Z"/><path class="cls-1" d="M108.67.18a10.14,10.14,0,0,1,1.23.07,2.26,2.26,0,0,1,.87.27,2,2,0,0,1,.9,1A3.76,3.76,0,0,1,112,3a4.79,4.79,0,0,1-.26,1.88,1.93,1.93,0,0,1-.38.52,2.59,2.59,0,0,1-.47.32,1.65,1.65,0,0,1,1.05.9,4.09,4.09,0,0,1,.31,1.77,9.45,9.45,0,0,1-.08,1.3,2.87,2.87,0,0,1-.4,1.16,2.17,2.17,0,0,1-.91.84,3.43,3.43,0,0,1-1.61.31h-2.43a.33.33,0,0,1-.28-.12.41.41,0,0,1-.11-.28V.56a.32.32,0,0,1,.13-.29.4.4,0,0,1,.26-.1Zm-.94,5h1.06a5.85,5.85,0,0,0,.73,0,1.2,1.2,0,0,0,.6-.23,1.24,1.24,0,0,0,.39-.61,3.52,3.52,0,0,0,.14-1.16,2,2,0,0,0-.15-.87,1.1,1.1,0,0,0-.41-.47,1.4,1.4,0,0,0-.63-.19c-.24,0-.51,0-.8,0h-.93Zm0,1.35v4.2h1.39a2.31,2.31,0,0,0,.74-.09,1.2,1.2,0,0,0,.56-.34,1.76,1.76,0,0,0,.34-.7,4.76,4.76,0,0,0,.12-1.19,2.81,2.81,0,0,0-.14-.95,1.15,1.15,0,0,0-.4-.57,1.43,1.43,0,0,0-.69-.27,4,4,0,0,0-.91-.08Z"/><path class="cls-1" d="M116,2.26l.27,3.55v5.81a.47.47,0,0,1-.09.28.35.35,0,0,1-.29.12h-.57a.36.36,0,0,1-.28-.11.44.44,0,0,1-.11-.29V.56A.37.37,0,0,1,115,.29a.38.38,0,0,1,.28-.12h1a.28.28,0,0,1,.26.13,2.06,2.06,0,0,1,.12.26l3.15,9.37-.24-3.37v-6a.47.47,0,0,1,.09-.28A.36.36,0,0,1,120,.18h.57a.38.38,0,0,1,.28.12.44.44,0,0,1,.11.29V11.66a.39.39,0,0,1-.39.38h-1a.29.29,0,0,1-.27-.13.58.58,0,0,1-.12-.25Z"/><path class="cls-1" d="M124.62,12a.33.33,0,0,1-.27-.12.43.43,0,0,1-.11-.28V.56a.41.41,0,0,1,.11-.26.32.32,0,0,1,.27-.13h.58a.32.32,0,0,1,.28.13.41.41,0,0,1,.11.26V11.62a.43.43,0,0,1-.11.28.33.33,0,0,1-.28.12Z"/><path class="cls-1" d="M128.4,12a.29.29,0,0,1-.3-.13.71.71,0,0,1-.09-.28v-.8a1,1,0,0,1,.09-.33c.05-.14.11-.26.15-.35l3.81-8.59h-3.54a.43.43,0,0,1-.28-.11.36.36,0,0,1-.12-.27V.57a.32.32,0,0,1,.12-.28.43.43,0,0,1,.28-.11h4.59a.37.37,0,0,1,.28.13.36.36,0,0,1,.11.26v.89a.45.45,0,0,1,0,.2l-.06.17-3.93,8.85h3.91a.43.43,0,0,1,.28.11.33.33,0,0,1,.12.28v.57a.36.36,0,0,1-.12.28.42.42,0,0,1-.28.1Z"/><path class="cls-1" d="M141,12a.33.33,0,0,1-.27-.12.43.43,0,0,1-.11-.28V.56a.41.41,0,0,1,.11-.26A.32.32,0,0,1,141,.17h.58a.32.32,0,0,1,.28.13.4.4,0,0,1,.1.26V11.62a.42.42,0,0,1-.1.28.33.33,0,0,1-.28.12Z"/><path class="cls-1" d="M146.32,2.26l.27,3.55v5.81a.47.47,0,0,1-.09.28.36.36,0,0,1-.29.12h-.58a.32.32,0,0,1-.27-.11.36.36,0,0,1-.11-.29V.56a.37.37,0,0,1,.11-.27.36.36,0,0,1,.27-.12h1a.28.28,0,0,1,.26.13,1.23,1.23,0,0,1,.12.26l3.16,9.37-.25-3.37v-6A.47.47,0,0,1,150,.31a.39.39,0,0,1,.29-.13h.57a.36.36,0,0,1,.28.12.44.44,0,0,1,.11.29V11.66a.39.39,0,0,1-.39.38h-1a.29.29,0,0,1-.27-.13.58.58,0,0,1-.12-.25Z"/><path class="cls-1" d="M159,6.19a.35.35,0,0,1-.13.27.4.4,0,0,1-.27.11h-2.87v5a.43.43,0,0,1-.11.28.31.31,0,0,1-.28.12h-.57a.31.31,0,0,1-.27-.12.36.36,0,0,1-.12-.28V.56a.42.42,0,0,1,.12-.26.29.29,0,0,1,.27-.13H159a.42.42,0,0,1,.28.1.35.35,0,0,1,.13.29v.57a.37.37,0,0,1-.13.28.48.48,0,0,1-.28.1h-3.33V5.23h2.87a.45.45,0,0,1,.27.1.33.33,0,0,1,.13.29Z"/><path class="cls-1" d="M164.21,12.2a3.14,3.14,0,0,1-1.51-.32,2.48,2.48,0,0,1-.86-.78,2.91,2.91,0,0,1-.39-1,5.2,5.2,0,0,1-.12-.87q-.09-1.66-.09-3.18c0-1,0-2.07.09-3.16a5.32,5.32,0,0,1,.12-.88,2.73,2.73,0,0,1,.39-.95,2.42,2.42,0,0,1,.86-.76,3.75,3.75,0,0,1,3,0,2.33,2.33,0,0,1,.86.76,3,3,0,0,1,.4,1,8.81,8.81,0,0,1,.11.88c0,1.09.08,2.15.08,3.16s0,2.08-.08,3.18a6.5,6.5,0,0,1-.12.87,2.93,2.93,0,0,1-.4,1,2.51,2.51,0,0,1-.87.78A3.16,3.16,0,0,1,164.21,12.2Zm0-10.84a1.41,1.41,0,0,0-.78.18A1.38,1.38,0,0,0,163,2a2.44,2.44,0,0,0-.23.69,6.77,6.77,0,0,0-.08.76c-.06.92-.08,1.8-.07,2.63s0,1.71.07,2.65a6.53,6.53,0,0,0,.08.76,2.06,2.06,0,0,0,.22.69,1.35,1.35,0,0,0,.46.49,1.41,1.41,0,0,0,.78.19,1.46,1.46,0,0,0,.76-.19,1.3,1.3,0,0,0,.47-.49,2.24,2.24,0,0,0,.23-.69c0-.25.06-.51.07-.76,0-.94.06-1.82.07-2.65s0-1.71-.07-2.63a6.77,6.77,0,0,0-.08-.76,2.44,2.44,0,0,0-.23-.69,1.32,1.32,0,0,0-.43-.48A1.46,1.46,0,0,0,164.21,1.36Z"/><path class="cls-1" d="M175.7,11.64a.36.36,0,0,1,0,.25.28.28,0,0,1-.29.13h-.69a.42.42,0,0,1-.27-.07.73.73,0,0,1-.17-.31l-1.59-5.18H171.2v5.18a.4.4,0,0,1-.1.26.33.33,0,0,1-.29.12h-.57a.33.33,0,0,1-.27-.12.36.36,0,0,1-.11-.26V.58A.36.36,0,0,1,170,.3a.38.38,0,0,1,.26-.11h2a6.72,6.72,0,0,1,1.67.17,1.73,1.73,0,0,1,1.06.77,2.64,2.64,0,0,1,.41,1,6.56,6.56,0,0,1,.13,1.32,4,4,0,0,1-.34,1.84,2.13,2.13,0,0,1-1.17,1Zm-4.47-6.51h1.1a5.36,5.36,0,0,0,.8,0,1,1,0,0,0,.55-.23,1.55,1.55,0,0,0,.27-.24,1.64,1.64,0,0,0,.16-.29,1.24,1.24,0,0,0,.09-.39,5.23,5.23,0,0,0,0-.56,2.88,2.88,0,0,0-.15-1.09,1.16,1.16,0,0,0-.42-.56.84.84,0,0,0-.27-.13,2.32,2.32,0,0,0-.38-.06h-1.75Z"/><path class="cls-1" d="M179.48,2.1h-.07l.2,5.18v4.34a.42.42,0,0,1-.1.28.33.33,0,0,1-.28.12h-.55a.36.36,0,0,1-.3-.12.41.41,0,0,1-.11-.28V.56a.36.36,0,0,1,.11-.26.34.34,0,0,1,.3-.13h1a.34.34,0,0,1,.27.1.69.69,0,0,1,.12.29l1.29,5.31.32,1.85h.07l.31-1.85L183.4.54c.06-.25.19-.37.39-.37h1.07a.33.33,0,0,1,.29.13.4.4,0,0,1,.1.26V11.62a.48.48,0,0,1-.1.28.35.35,0,0,1-.29.12h-.57a.36.36,0,0,1-.27-.12.39.39,0,0,1-.11-.28V7.28l.2-5.18H184l-1.61,7.33a.64.64,0,0,1-.11.3.35.35,0,0,1-.27.1h-.58a.31.31,0,0,1-.24-.1,1,1,0,0,1-.14-.3Z"/><path class="cls-1" d="M191.07.18c.2,0,.33.13.38.39l2.22,11.07a.3.3,0,0,1,0,.27.32.32,0,0,1-.27.11h-.68c-.23,0-.36-.13-.4-.38l-.42-2h-2.3l-.34,2c-.05.26-.18.38-.41.38h-.65a.31.31,0,0,1-.27-.1.34.34,0,0,1,0-.28L190.05.58a.7.7,0,0,1,.12-.28.3.3,0,0,1,.27-.11Zm.59,8.16L191,4.19l-.24-2.27h-.07l-.23,2.27-.65,4.15Z"/><path class="cls-1" d="M200.56,1.13a.36.36,0,0,1-.12.28.48.48,0,0,1-.28.1h-1.89v10.1a.43.43,0,0,1-.11.28.33.33,0,0,1-.28.12h-.57a.34.34,0,0,1-.27-.12.39.39,0,0,1-.12-.28V1.52H195a.42.42,0,0,1-.26-.1.36.36,0,0,1-.12-.28V.57a.32.32,0,0,1,.12-.28A.38.38,0,0,1,195,.18h5.17a.43.43,0,0,1,.28.11.32.32,0,0,1,.12.28Z"/><path class="cls-1" d="M203.3,12a.33.33,0,0,1-.28-.12.43.43,0,0,1-.11-.28V.56A.41.41,0,0,1,203,.3a.34.34,0,0,1,.28-.13h.57a.31.31,0,0,1,.28.13.41.41,0,0,1,.11.26V11.62a.43.43,0,0,1-.11.28.33.33,0,0,1-.28.12Z"/><path class="cls-1" d="M210.14,12.2a3.16,3.16,0,0,1-1.51-.32,2.48,2.48,0,0,1-.86-.78,2.71,2.71,0,0,1-.39-1,4.34,4.34,0,0,1-.12-.87c-.06-1.11-.08-2.17-.08-3.18s0-2.07.08-3.16a4.43,4.43,0,0,1,.12-.88,2.55,2.55,0,0,1,.39-.95,2.42,2.42,0,0,1,.86-.76,3.75,3.75,0,0,1,3,0,2.32,2.32,0,0,1,.86.76,2.73,2.73,0,0,1,.39,1,6.64,6.64,0,0,1,.12.88c.06,1.09.09,2.15.09,3.16s0,2.08-.09,3.18a6.5,6.5,0,0,1-.12.87,2.91,2.91,0,0,1-.39,1,2.57,2.57,0,0,1-.86.78A3.12,3.12,0,0,1,210.14,12.2Zm0-10.84a1.43,1.43,0,0,0-.78.18,1.29,1.29,0,0,0-.45.48,2.16,2.16,0,0,0-.23.69,6.53,6.53,0,0,0-.08.76c0,.92-.08,1.8-.07,2.63s0,1.71.07,2.65a6.51,6.51,0,0,0,.07.76,2.08,2.08,0,0,0,.23.69,1.35,1.35,0,0,0,.46.49,1.66,1.66,0,0,0,1.54,0,1.3,1.3,0,0,0,.47-.49,2.34,2.34,0,0,0,.23-.69c0-.25.06-.51.07-.76,0-.94.05-1.82.06-2.65s0-1.71-.06-2.63a4.92,4.92,0,0,0-.09-.76,2.14,2.14,0,0,0-.22-.69,1.41,1.41,0,0,0-.46-.48A1.43,1.43,0,0,0,210.14,1.36Z"/><path class="cls-1" d="M216.88,2.26l.27,3.55v5.81a.48.48,0,0,1-.1.28.35.35,0,0,1-.29.12h-.57a.36.36,0,0,1-.28-.11.43.43,0,0,1-.1-.29V.56a.43.43,0,0,1,.1-.27.36.36,0,0,1,.28-.12h1a.28.28,0,0,1,.26.13,2.1,2.1,0,0,1,.13.26l3.15,9.37-.26-3.37v-6a.43.43,0,0,1,.11-.28.31.31,0,0,1,.28-.13h.57a.38.38,0,0,1,.28.12.44.44,0,0,1,.11.29V11.66a.36.36,0,0,1-.11.26.38.38,0,0,1-.28.12h-1a.29.29,0,0,1-.27-.13.58.58,0,0,1-.12-.25Z"/><path class="cls-1" d="M234.6,3.24a.35.35,0,0,1-.31.38h-.65a.43.43,0,0,1-.27-.1.39.39,0,0,1-.12-.28V3a2.88,2.88,0,0,0-.06-.59,1.48,1.48,0,0,0-.23-.53,1.1,1.1,0,0,0-.42-.38,1.3,1.3,0,0,0-.64-.14,1.58,1.58,0,0,0-.8.16,1.32,1.32,0,0,0-.46.45,1.87,1.87,0,0,0-.23.65,6.34,6.34,0,0,0-.07.75c0,.51-.06,1-.07,1.38s0,.88,0,1.3V7.32c0,.43,0,.89.08,1.38a6.31,6.31,0,0,0,.08.76,2.15,2.15,0,0,0,.24.7,1.35,1.35,0,0,0,.46.49,1.49,1.49,0,0,0,.8.2,1.29,1.29,0,0,0,.69-.17,1.21,1.21,0,0,0,.45-.45,2.14,2.14,0,0,0,.25-.65,3.64,3.64,0,0,0,.07-.74V8.23a.39.39,0,0,1,.11-.28.35.35,0,0,1,.28-.1h.57a.35.35,0,0,1,.38.33V9.37a3.48,3.48,0,0,1-.11.85,2.72,2.72,0,0,1-.43.91,2.42,2.42,0,0,1-.88.74,3.15,3.15,0,0,1-1.48.3,2.76,2.76,0,0,1-1.46-.32,2.51,2.51,0,0,1-.85-.77,3.06,3.06,0,0,1-.39-.93c-.05-.26-.09-.53-.12-.8q-.06-.86-.09-1.65c0-.53,0-1.06,0-1.58V4.53c0-.52,0-1.08.09-1.64A8.08,8.08,0,0,1,229,2a2.75,2.75,0,0,1,.4-.95,2.46,2.46,0,0,1,.9-.76A3.35,3.35,0,0,1,231.93,0a2.59,2.59,0,0,1,1.34.3,2.38,2.38,0,0,1,.79.69,2.31,2.31,0,0,1,.39.86,4.17,4.17,0,0,1,.1.78Z"/><path class="cls-1" d="M242.28,11.64a.36.36,0,0,1-.12.28.42.42,0,0,1-.28.1h-4.41a.33.33,0,0,1-.28-.12.39.39,0,0,1-.11-.28V.56a.36.36,0,0,1,.11-.26.32.32,0,0,1,.28-.13h4.31a.45.45,0,0,1,.28.1.35.35,0,0,1,.12.29v.57a.33.33,0,0,1-.12.28.45.45,0,0,1-.28.1h-3.34V5.23h2.87a.48.48,0,0,1,.28.1.33.33,0,0,1,.12.29v.57a.33.33,0,0,1-.12.27.39.39,0,0,1-.28.11h-2.87v4.11h3.46a.43.43,0,0,1,.28.11.33.33,0,0,1,.12.28Z"/><path class="cls-1" d="M245.73,2.26,246,5.81v5.81a.47.47,0,0,1-.09.28.36.36,0,0,1-.29.12h-.57a.36.36,0,0,1-.28-.11.44.44,0,0,1-.11-.29V.56a.37.37,0,0,1,.11-.27.36.36,0,0,1,.28-.12h1a.26.26,0,0,1,.25.13.79.79,0,0,1,.13.26l3.15,9.37-.25-3.37v-6a.48.48,0,0,1,.1-.28.36.36,0,0,1,.29-.13h.57a.39.39,0,0,1,.28.12.44.44,0,0,1,.11.29V11.66a.36.36,0,0,1-.11.26.38.38,0,0,1-.28.12h-1a.29.29,0,0,1-.27-.13.58.58,0,0,1-.12-.25Z"/><path class="cls-1" d="M258.77,1.13a.36.36,0,0,1-.12.28.48.48,0,0,1-.29.1h-1.89v10.1a.42.42,0,0,1-.1.28.33.33,0,0,1-.28.12h-.58a.36.36,0,0,1-.27-.12.43.43,0,0,1-.11-.28V1.52H253.2a.42.42,0,0,1-.26-.1.39.39,0,0,1-.09-.29V.57A.33.33,0,0,1,253,.29a.36.36,0,0,1,.26-.11h5.15a.43.43,0,0,1,.28.11.32.32,0,0,1,.12.28Z"/><path class="cls-1" d="M266.76,11.64a.36.36,0,0,1,0,.25c0,.09-.14.13-.28.13h-.69a.41.41,0,0,1-.27-.07.53.53,0,0,1-.17-.31l-1.59-5.18h-1.5v5.18a.4.4,0,0,1-.1.26.33.33,0,0,1-.28.12h-.57a.33.33,0,0,1-.28-.12.36.36,0,0,1-.11-.26V.58A.37.37,0,0,1,261,.3a.36.36,0,0,1,.26-.11h2A6.59,6.59,0,0,1,265,.36a1.73,1.73,0,0,1,1.09.77,2.64,2.64,0,0,1,.41,1,5.91,5.91,0,0,1,.13,1.32,4,4,0,0,1-.34,1.84,2.13,2.13,0,0,1-1.17,1Zm-4.52-6.51h1.11a5.36,5.36,0,0,0,.8,0,1,1,0,0,0,.54-.23,1.25,1.25,0,0,0,.27-.24,1.69,1.69,0,0,0,.17-.29,1.24,1.24,0,0,0,.09-.39,5.23,5.23,0,0,0,0-.56,3.09,3.09,0,0,0-.15-1.09,1.23,1.23,0,0,0-.42-.56,1,1,0,0,0-.27-.13,2.32,2.32,0,0,0-.38-.06h-1.8Z"/><path class="cls-1" d="M274.47,11.64a.32.32,0,0,1-.13.28.38.38,0,0,1-.27.1h-4.42a.33.33,0,0,1-.27-.12.43.43,0,0,1-.11-.28V.56a.41.41,0,0,1,.11-.26.32.32,0,0,1,.27-.13H274a.42.42,0,0,1,.28.1.38.38,0,0,1,.13.29v.57a.37.37,0,0,1-.13.28.48.48,0,0,1-.28.1h-3.34V5.23h2.87a.48.48,0,0,1,.28.1.39.39,0,0,1,.13.29v.57a.35.35,0,0,1-.13.27.43.43,0,0,1-.28.11h-2.87v4.11h3.46a.41.41,0,0,1,.28.11.31.31,0,0,1,.13.28Z"/><path class="cls-1" d="M91.58,26.5a.36.36,0,0,1-.12.27.43.43,0,0,1-.28.11H88.31v5.05a.48.48,0,0,1-.1.28.33.33,0,0,1-.28.12h-.58a.36.36,0,0,1-.27-.12.43.43,0,0,1-.11-.28V20.86a.38.38,0,0,1,.11-.26.36.36,0,0,1,.27-.12h4.33a.38.38,0,0,1,.27.1.33.33,0,0,1,.13.28v.57a.34.34,0,0,1-.13.28.39.39,0,0,1-.27.11H88.34v3.71h2.87a.38.38,0,0,1,.27.1.32.32,0,0,1,.13.28Z"/><path class="cls-1" d="M96.84,32.5a3,3,0,0,1-1.5-.32,2.28,2.28,0,0,1-.86-.77,2.73,2.73,0,0,1-.4-1,6.5,6.5,0,0,1-.12-.87c-.06-1.11-.08-2.17-.08-3.18s0-2.07.08-3.17a6.5,6.5,0,0,1,.12-.87,2.75,2.75,0,0,1,.4-1,2.25,2.25,0,0,1,.86-.76,3.75,3.75,0,0,1,3,0,2.39,2.39,0,0,1,.85.76,2.75,2.75,0,0,1,.4,1,6.5,6.5,0,0,1,.12.87c0,1.1.08,2.15.08,3.17s0,2.08-.08,3.18a6.5,6.5,0,0,1-.12.87,2.73,2.73,0,0,1-.4,1,2.33,2.33,0,0,1-.85.77A3,3,0,0,1,96.84,32.5Zm0-10.83a1.43,1.43,0,0,0-.78.18,1.3,1.3,0,0,0-.45.48,2.42,2.42,0,0,0-.22.69,4.92,4.92,0,0,0-.09.76c0,.92-.07,1.8-.06,2.63s0,1.71.06,2.64a4.9,4.9,0,0,0,.08.77,1.88,1.88,0,0,0,.23.69,1.35,1.35,0,0,0,.45.5,1.76,1.76,0,0,0,1.55,0,1.33,1.33,0,0,0,.47-.5,2.06,2.06,0,0,0,.22-.69,4.9,4.9,0,0,0,.07-.77c0-.93.06-1.81.07-2.64s0-1.71-.07-2.63a3.92,3.92,0,0,0-.08-.76,2.14,2.14,0,0,0-.22-.69,1.32,1.32,0,0,0-.46-.48A1.48,1.48,0,0,0,96.84,21.67Z"/><path class="cls-1" d="M108.34,32a.33.33,0,0,1,0,.24.28.28,0,0,1-.29.14h-.69a.42.42,0,0,1-.27-.07.49.49,0,0,1-.16-.31l-1.6-5.19h-1.5v5.17a.43.43,0,0,1-.09.26.35.35,0,0,1-.29.12h-.57a.36.36,0,0,1-.28-.12.5.5,0,0,1-.11-.26V20.86a.34.34,0,0,1,.13-.28.36.36,0,0,1,.26-.11h2a7.23,7.23,0,0,1,1.67.17,1.7,1.7,0,0,1,1.06.75,2.68,2.68,0,0,1,.41,1,6.4,6.4,0,0,1,.13,1.31,4.17,4.17,0,0,1-.33,1.85,2.2,2.2,0,0,1-1.18,1Zm-4.52-6.51h1.11a7,7,0,0,0,.8,0,1.14,1.14,0,0,0,.54-.23,1.27,1.27,0,0,0,.27-.25,1,1,0,0,0,.17-.28,1.59,1.59,0,0,0,.1-.39v-.56a3.34,3.34,0,0,0-.15-1.09,1.25,1.25,0,0,0-.42-.57,1.59,1.59,0,0,0-.27-.12,1.76,1.76,0,0,0-.39-.06h-1.8Z"/><path class="cls-1" d="M120.5,29.06a3.72,3.72,0,0,1-.79,2.59,2.85,2.85,0,0,1-2.21.85,3.09,3.09,0,0,1-1.46-.3,2.56,2.56,0,0,1-.92-.81,2.89,2.89,0,0,1-.47-1.15,6.49,6.49,0,0,1-.14-1.39v-.17a.43.43,0,0,1,.11-.28.35.35,0,0,1,.28-.1h.59a.35.35,0,0,1,.26.1.37.37,0,0,1,.1.28v.19A4.09,4.09,0,0,0,116,30a2,2,0,0,0,.37.7,1.25,1.25,0,0,0,.52.36,1.92,1.92,0,0,0,.63.09,1.67,1.67,0,0,0,1.2-.44,2.11,2.11,0,0,0,.46-1.55,1.78,1.78,0,0,0-.33-1.07,4.46,4.46,0,0,0-.83-.85c-.33-.25-.69-.5-1.07-.76a7.43,7.43,0,0,1-1-.81,4,4,0,0,1-.83-1.08,3.29,3.29,0,0,1-.15-2.51,2.64,2.64,0,0,1,.51-.89,2.54,2.54,0,0,1,.87-.61,3.27,3.27,0,0,1,2.41,0,2.43,2.43,0,0,1,.85.6A2.68,2.68,0,0,1,120,22a2.8,2.8,0,0,1,.18,1v.12a.39.39,0,0,1-.11.27.38.38,0,0,1-.3.11h-.55a.32.32,0,0,1-.28-.13.36.36,0,0,1-.11-.25h0a1.49,1.49,0,0,0-.37-1,1.35,1.35,0,0,0-1-.4,1.62,1.62,0,0,0-.69.12,1.28,1.28,0,0,0-.45.32,1.13,1.13,0,0,0-.24.46,1.59,1.59,0,0,0-.08.53,1.8,1.8,0,0,0,.32,1.05,4.71,4.71,0,0,0,.83.84c.34.27.7.53,1.08.79a9.51,9.51,0,0,1,1.1.82,4.18,4.18,0,0,1,.83,1A2.93,2.93,0,0,1,120.5,29.06Z"/><path class="cls-1" d="M128.24,23.55a.39.39,0,0,1-.11.27.34.34,0,0,1-.28.11h-.58a.37.37,0,0,1-.38-.34v-.28a2.46,2.46,0,0,0-.07-.6,1.6,1.6,0,0,0-.22-.52,1.18,1.18,0,0,0-.42-.38,1.32,1.32,0,0,0-.65-.14,1.54,1.54,0,0,0-.79.16,1.35,1.35,0,0,0-.47.45,1.85,1.85,0,0,0-.22.65,6.14,6.14,0,0,0-.08.75c0,.5-.06,1-.07,1.38s0,.87,0,1.3,0,.84,0,1.27,0,.88.08,1.38a6.48,6.48,0,0,0,.08.77,2.1,2.1,0,0,0,.24.69,1.26,1.26,0,0,0,.47.5,1.47,1.47,0,0,0,.79.19,1.45,1.45,0,0,0,.7-.17,1.29,1.29,0,0,0,.45-.45,2.41,2.41,0,0,0,.24-.65,3.67,3.67,0,0,0,.07-.75v-.6a.43.43,0,0,1,.1-.27.35.35,0,0,1,.28-.11h.58a.38.38,0,0,1,.39.37h0v1.14a4,4,0,0,1-.12.85,2.87,2.87,0,0,1-.43.92,2.6,2.6,0,0,1-.82.73,3.31,3.31,0,0,1-1.48.31,3,3,0,0,1-1.47-.32,2.42,2.42,0,0,1-.84-.78,2.58,2.58,0,0,1-.39-.92,5.52,5.52,0,0,1-.12-.8c0-.57-.08-1.12-.1-1.65s0-1.06,0-1.59V24.84c0-.53,0-1.07.09-1.63a5.18,5.18,0,0,1,.11-.87,2.34,2.34,0,0,1,1.29-1.7,3.53,3.53,0,0,1,1.6-.32,2.57,2.57,0,0,1,1.33.3,2.41,2.41,0,0,1,.8.69,2.48,2.48,0,0,1,.39.86,4.17,4.17,0,0,1,.1.78Z"/><path class="cls-1" d="M131.32,32.33a.33.33,0,0,1-.28-.12.41.41,0,0,1-.11-.28V20.86a.43.43,0,0,1,.11-.26.33.33,0,0,1,.28-.12h.57a.35.35,0,0,1,.29.12.52.52,0,0,1,.1.26V31.93a.56.56,0,0,1-.1.28.35.35,0,0,1-.29.12Z"/><path class="cls-1" d="M140.79,32a.3.3,0,0,1-.13.27.41.41,0,0,1-.28.11H136a.33.33,0,0,1-.28-.12.41.41,0,0,1-.11-.28V20.86a.38.38,0,0,1,.11-.26.35.35,0,0,1,.28-.1h4.29a.38.38,0,0,1,.27.1.36.36,0,0,1,.14.29v.56a.35.35,0,0,1-.14.28.39.39,0,0,1-.27.11H136.9v3.71h2.87a.42.42,0,0,1,.28.1.32.32,0,0,1,.12.28v.57a.33.33,0,0,1-.12.28.43.43,0,0,1-.28.11H136.9V31h3.46a.42.42,0,0,1,.28.1.32.32,0,0,1,.13.29Z"/><path class="cls-1" d="M144.25,22.57l.27,3.54v5.82a.48.48,0,0,1-.1.28.35.35,0,0,1-.29.12h-.57a.33.33,0,0,1-.28-.11.44.44,0,0,1-.11-.29V20.86a.4.4,0,0,1,.11-.27.35.35,0,0,1,.28-.09h1a.3.3,0,0,1,.26.12,2.24,2.24,0,0,1,.13.27l3.15,9.37-.25-3.37v-6a.43.43,0,0,1,.1-.27.34.34,0,0,1,.28-.13h.58a.36.36,0,0,1,.27.12.43.43,0,0,1,.11.28V32a.39.39,0,0,1-.11.27.36.36,0,0,1-.27.12h-1a.29.29,0,0,1-.27-.13,1.23,1.23,0,0,1-.12-.26Z"/><path class="cls-1" d="M157.62,23.55a.38.38,0,0,1-.1.27.36.36,0,0,1-.29.11h-.53a.38.38,0,0,1-.39-.38v-.24a3.05,3.05,0,0,0-.06-.6,1.62,1.62,0,0,0-.23-.52,1.18,1.18,0,0,0-.42-.38,1.3,1.3,0,0,0-.64-.14,1.58,1.58,0,0,0-.8.16,1.24,1.24,0,0,0-.46.45,1.69,1.69,0,0,0-.23.65,6.36,6.36,0,0,0-.08.75c0,.5,0,1-.07,1.38s0,.87,0,1.3v1.27c0,.43,0,.88.07,1.38a4.91,4.91,0,0,0,.09.77,1.88,1.88,0,0,0,.23.69,1.33,1.33,0,0,0,.47.5,1.48,1.48,0,0,0,.8.19,1.38,1.38,0,0,0,.69-.17,1.21,1.21,0,0,0,.45-.45,2.12,2.12,0,0,0,.24-.65,3.08,3.08,0,0,0,.08-.75v-.6a.34.34,0,0,1,.1-.27.35.35,0,0,1,.28-.11h.57a.33.33,0,0,1,.28.11.39.39,0,0,1,.11.27v1.14a3,3,0,0,1-.12.85,2.67,2.67,0,0,1-.43.92,2.4,2.4,0,0,1-.88.73,3.21,3.21,0,0,1-1.47.31,3,3,0,0,1-1.47-.32,2.39,2.39,0,0,1-.86-.78,2.58,2.58,0,0,1-.39-.92,5.52,5.52,0,0,1-.12-.8c0-.57-.08-1.12-.1-1.65s0-1.06,0-1.59V24.84c0-.53,0-1.07.09-1.63a8.62,8.62,0,0,1,.11-.87,2.53,2.53,0,0,1,.44-.94,2.32,2.32,0,0,1,.89-.76,3.53,3.53,0,0,1,1.6-.32,2.86,2.86,0,0,1,1.34.3,2.36,2.36,0,0,1,1.18,1.57,3.31,3.31,0,0,1,.09.77Z"/><path class="cls-1" d="M165.31,32a.35.35,0,0,1-.13.27.39.39,0,0,1-.28.11h-4.41a.33.33,0,0,1-.28-.12.41.41,0,0,1-.11-.28V20.86a.5.5,0,0,1,.11-.26.33.33,0,0,1,.28-.12h4.3a.43.43,0,0,1,.27.1.33.33,0,0,1,.13.28v.57a.34.34,0,0,1-.13.28.39.39,0,0,1-.27.11h-3.34v3.71h2.86a.42.42,0,0,1,.28.1.33.33,0,0,1,.12.28v.57a.36.36,0,0,1-.12.28.43.43,0,0,1-.28.11h-2.87V31h3.46a.43.43,0,0,1,.27.1.33.33,0,0,1,.13.28Z"/><path class="cls-1" d="M174.36,20.5q.3,0,.39.39L177,32a.31.31,0,0,1-.05.28.3.3,0,0,1-.27.11H176c-.23,0-.36-.12-.41-.39L175.17,30h-2.3L172.46,32c0,.27-.18.39-.4.39h-.69a.29.29,0,0,1-.26-.11.35.35,0,0,1-.06-.28l2.22-11.06a.86.86,0,0,1,.11-.28.32.32,0,0,1,.27-.11Zm.59,8.15-.65-4.15-.24-2.26H174l-.23,2.26-.66,4.15Z"/><path class="cls-1" d="M180.54,22.57l.26,3.54v5.82a.42.42,0,0,1-.1.28.33.33,0,0,1-.28.12h-.57a.36.36,0,0,1-.28-.11.38.38,0,0,1-.1-.29V20.86a.35.35,0,0,1,.1-.27.39.39,0,0,1,.28-.11h1a.27.27,0,0,1,.25.12,1.26,1.26,0,0,1,.13.26l3.13,9.4-.25-3.38v-6a.43.43,0,0,1,.1-.27.33.33,0,0,1,.29-.13h.57a.36.36,0,0,1,.27.12.34.34,0,0,1,.11.28V32a.39.39,0,0,1-.11.27.36.36,0,0,1-.27.12h-1a.3.3,0,0,1-.27-.13.85.85,0,0,1-.11-.26Z"/><path class="cls-1" d="M188.57,20.88a.36.36,0,0,1,.11-.26.37.37,0,0,1,.28-.13h2.58a3.24,3.24,0,0,1,1.47.28,2.31,2.31,0,0,1,.83.69,2.63,2.63,0,0,1,.39.85c.06.3.11.55.14.76a21.58,21.58,0,0,1,.23,3.31c0,1.11-.07,2.22-.19,3.32a7.94,7.94,0,0,1-.13.83,2.14,2.14,0,0,1-.41.86,2.24,2.24,0,0,1-.89.69,3.62,3.62,0,0,1-1.59.28H189a.36.36,0,0,1-.28-.12.43.43,0,0,1-.11-.28ZM189.9,31h1.58a1.7,1.7,0,0,0,.8-.15,1.1,1.1,0,0,0,.46-.42,1.88,1.88,0,0,0,.23-.61c0-.23.07-.47.11-.73a20.57,20.57,0,0,0,.14-2.72,24.41,24.41,0,0,0-.18-2.65c0-.24-.07-.48-.11-.69a1.57,1.57,0,0,0-.23-.61,1.13,1.13,0,0,0-.44-.4,1.67,1.67,0,0,0-.79-.16H189.9Z"/><path class="cls-1" d="M205.41,21.45a.33.33,0,0,1-.12.27.43.43,0,0,1-.28.11h-1.89v10.1a.48.48,0,0,1-.1.28.35.35,0,0,1-.29.12h-.57a.33.33,0,0,1-.28-.12.41.41,0,0,1-.11-.28V21.83h-1.93a.36.36,0,0,1-.25-.11.34.34,0,0,1-.13-.27v-.57a.36.36,0,0,1,.13-.29.39.39,0,0,1,.25-.1H205a.48.48,0,0,1,.28.1.35.35,0,0,1,.12.29Z"/><path class="cls-1" d="M212.73,32a.31.31,0,0,1-.12.27.43.43,0,0,1-.28.11h-4.41a.36.36,0,0,1-.28-.12.43.43,0,0,1-.11-.28V20.86a.38.38,0,0,1,.11-.26.36.36,0,0,1,.28-.12h4.29a.42.42,0,0,1,.28.1.34.34,0,0,1,.12.28v.57a.33.33,0,0,1-.12.28.41.41,0,0,1-.28.11h-3.34v3.71h2.87a.42.42,0,0,1,.28.1.33.33,0,0,1,.12.28v.57a.33.33,0,0,1-.12.28.43.43,0,0,1-.28.11h-2.87V31h3.46a.42.42,0,0,1,.28.1.34.34,0,0,1,.12.28Z"/><path class="cls-1" d="M220.48,23.55a.39.39,0,0,1-.11.27.33.33,0,0,1-.28.11h-.57a.35.35,0,0,1-.27-.11.32.32,0,0,1-.11-.27v-.24a3.07,3.07,0,0,0-.07-.6,1.36,1.36,0,0,0-.23-.52,1.1,1.1,0,0,0-.42-.38,1.28,1.28,0,0,0-.64-.14,1.58,1.58,0,0,0-.8.16,1.24,1.24,0,0,0-.46.45,2.1,2.1,0,0,0-.23.65,6.15,6.15,0,0,0-.1.75c0,.5-.06,1-.08,1.38s0,.87,0,1.3,0,.84,0,1.27,0,.88.07,1.38a4.91,4.91,0,0,0,.09.77,1.88,1.88,0,0,0,.23.69,1.4,1.4,0,0,0,.47.5,1.48,1.48,0,0,0,.8.19,1.38,1.38,0,0,0,.69-.17,1.21,1.21,0,0,0,.45-.45,1.89,1.89,0,0,0,.24-.65,3.67,3.67,0,0,0,.08-.75v-.6a.38.38,0,0,1,.1-.27.36.36,0,0,1,.29-.11h.56a.33.33,0,0,1,.28.11.39.39,0,0,1,.11.27v1.14a4,4,0,0,1-.12.85,2.67,2.67,0,0,1-.43.92,2.45,2.45,0,0,1-.87.73,3.18,3.18,0,0,1-1.48.31,3,3,0,0,1-1.47-.32,2.51,2.51,0,0,1-.84-.78,2.58,2.58,0,0,1-.39-.92,5.52,5.52,0,0,1-.12-.8c0-.57-.08-1.12-.1-1.65s0-1.06,0-1.59V24.84c0-.53,0-1.07.09-1.63a6.47,6.47,0,0,1,.11-.87,2.53,2.53,0,0,1,.4-.94,2.28,2.28,0,0,1,.9-.76,3.51,3.51,0,0,1,1.59-.32,2.76,2.76,0,0,1,1.33.3,2.25,2.25,0,0,1,1.19,1.55,4.17,4.17,0,0,1,.1.78Z"/><path class="cls-1" d="M227.79,32.33a.36.36,0,0,1-.28-.12.43.43,0,0,1-.11-.28V26.88h-3.1v5.05a.42.42,0,0,1-.1.28.33.33,0,0,1-.28.12h-.57a.33.33,0,0,1-.28-.12.41.41,0,0,1-.11-.28V20.86a.38.38,0,0,1,.11-.26.33.33,0,0,1,.28-.12h.57a.33.33,0,0,1,.28.12.42.42,0,0,1,.1.26v4.67h3.1V20.88a.47.47,0,0,1,.11-.26.37.37,0,0,1,.28-.13h.57a.36.36,0,0,1,.29.13.4.4,0,0,1,.1.26V32a.43.43,0,0,1-.1.27.36.36,0,0,1-.29.13Z"/><path class="cls-1" d="M232.91,22.57l.27,3.54v5.82a.43.43,0,0,1-.11.28.33.33,0,0,1-.28.12h-.57a.36.36,0,0,1-.28-.11.38.38,0,0,1-.1-.29V20.86a.35.35,0,0,1,.1-.27.39.39,0,0,1,.28-.11h1a.25.25,0,0,1,.25.12.91.91,0,0,1,.13.26l3.16,9.38-.26-3.37v-6a.39.39,0,0,1,.11-.27.31.31,0,0,1,.28-.13h.57a.38.38,0,0,1,.28.12.37.37,0,0,1,.1.28V32a.34.34,0,0,1-.1.27.38.38,0,0,1-.28.12h-1a.31.31,0,0,1-.27-.13.85.85,0,0,1-.11-.26Z"/><path class="cls-1" d="M243.52,32.5a3,3,0,0,1-1.51-.32,2.44,2.44,0,0,1-.86-.77,2.91,2.91,0,0,1-.39-1,6.5,6.5,0,0,1-.12-.87c0-1.11-.08-2.17-.08-3.18s0-2.07.08-3.17a6.5,6.5,0,0,1,.12-.87,2.73,2.73,0,0,1,.39-1,2.42,2.42,0,0,1,.86-.76,3.75,3.75,0,0,1,3,0,2.25,2.25,0,0,1,.86.76,2.75,2.75,0,0,1,.4,1,6.5,6.5,0,0,1,.12.87c0,1.1.08,2.15.08,3.17s0,2.08-.08,3.18a6.5,6.5,0,0,1-.12.87,2.93,2.93,0,0,1-.4,1,2.36,2.36,0,0,1-.86.77A3,3,0,0,1,243.52,32.5Zm0-10.83a1.37,1.37,0,0,0-.77.18,1.18,1.18,0,0,0-.46.48,2.14,2.14,0,0,0-.22.69,4.92,4.92,0,0,0-.09.76c0,.92-.08,1.8-.07,2.63s0,1.71.07,2.64a6.48,6.48,0,0,0,.08.77,1.86,1.86,0,0,0,.22.69,1.26,1.26,0,0,0,.47.5,1.37,1.37,0,0,0,.77.17,1.38,1.38,0,0,0,.77-.17,1.31,1.31,0,0,0,.46-.5,2.08,2.08,0,0,0,.23-.69c0-.25.06-.51.08-.77,0-.93.05-1.81.06-2.64s0-1.71-.06-2.63c0-.25-.05-.51-.09-.76a2.16,2.16,0,0,0-.23-.69,1.22,1.22,0,0,0-.45-.48A1.48,1.48,0,0,0,243.52,21.67Z"/><path class="cls-1" d="M254.12,32a.31.31,0,0,1-.12.27.39.39,0,0,1-.28.11h-4.15a.36.36,0,0,1-.27-.12.43.43,0,0,1-.11-.28V20.86a.38.38,0,0,1,.11-.26.36.36,0,0,1,.27-.12h.58a.33.33,0,0,1,.28.12.42.42,0,0,1,.1.26V31h3.22a.43.43,0,0,1,.28.11.32.32,0,0,1,.12.28Z"/><path class="cls-1" d="M258.11,32.5a3.1,3.1,0,0,1-1.5-.32,2.28,2.28,0,0,1-.86-.77,2.93,2.93,0,0,1-.4-1,6.5,6.5,0,0,1-.12-.87c0-1.11-.08-2.17-.08-3.18s0-2.07.08-3.17a6.5,6.5,0,0,1,.12-.87,2.75,2.75,0,0,1,.4-1,2.25,2.25,0,0,1,.86-.76,3.75,3.75,0,0,1,3,0,2.36,2.36,0,0,1,.84.76,2.55,2.55,0,0,1,.39,1,4.34,4.34,0,0,1,.12.87c.06,1.1.09,2.15.09,3.17s0,2.08-.09,3.18a4.34,4.34,0,0,1-.12.87,2.71,2.71,0,0,1-.39,1,2.36,2.36,0,0,1-.86.77A3.06,3.06,0,0,1,258.11,32.5Zm0-10.83a1.43,1.43,0,0,0-.78.18,1.3,1.3,0,0,0-.45.48,2.14,2.14,0,0,0-.22.69,6.56,6.56,0,0,0-.09.76c-.05.92-.07,1.8-.06,2.63s0,1.71.06,2.64a4.9,4.9,0,0,0,.08.77,1.88,1.88,0,0,0,.23.69,1.35,1.35,0,0,0,.45.5,1.76,1.76,0,0,0,1.55,0,1.33,1.33,0,0,0,.47-.5,2.06,2.06,0,0,0,.22-.69,4.9,4.9,0,0,0,.07-.77c0-.93.06-1.81.07-2.64s0-1.71-.07-2.63a3.92,3.92,0,0,0-.08-.76,2.14,2.14,0,0,0-.22-.69,1.32,1.32,0,0,0-.46-.48A1.48,1.48,0,0,0,258.11,21.67Z"/><path class="cls-1" d="M269.09,25.88V32a.38.38,0,0,1-.11.26.36.36,0,0,1-.27.12h-.51a.33.33,0,0,1-.27-.09.51.51,0,0,1-.1-.24v-.14a1.62,1.62,0,0,1-.69.49,2.78,2.78,0,0,1-2.22-.22,2.74,2.74,0,0,1-.83-.83,3.16,3.16,0,0,1-.42-1,4.66,4.66,0,0,1-.13-.82c-.08-1-.13-2-.13-3.05a30.33,30.33,0,0,1,.13-3.05,6.77,6.77,0,0,1,.14-1,3.06,3.06,0,0,1,.39-1,2.36,2.36,0,0,1,.82-.75,2.92,2.92,0,0,1,1.45-.31,3,3,0,0,1,1.5.33,2.37,2.37,0,0,1,1.16,1.7,4.77,4.77,0,0,1,.07.76v.22a.42.42,0,0,1-.1.26.33.33,0,0,1-.27.12h-.63a.35.35,0,0,1-.29-.12.52.52,0,0,1-.1-.26,5.23,5.23,0,0,0,0-.56,1.25,1.25,0,0,0-.15-.54.86.86,0,0,0-.42-.4,1.6,1.6,0,0,0-.8-.16,1.5,1.5,0,0,0-.73.15,1,1,0,0,0-.42.41,1.59,1.59,0,0,0-.21.6c0,.23-.07.48-.09.73a28,28,0,0,0-.1,2.87c0,.94,0,1.86.11,2.77a2.9,2.9,0,0,0,.44,1.48,1.15,1.15,0,0,0,1,.46,1.46,1.46,0,0,0,.79-.18,1.31,1.31,0,0,0,.44-.52,2.38,2.38,0,0,0,.2-.69c0-.25,0-.52,0-.77V27.17h-1.46a.41.41,0,0,1-.26-.11.37.37,0,0,1-.13-.27v-.53a.34.34,0,0,1,.13-.28.35.35,0,0,1,.26-.1Z"/><path class="cls-1" d="M273.69,32.33a.36.36,0,0,1-.28-.12.41.41,0,0,1-.11-.28v-5l-2.18-6a.23.23,0,0,1,0-.27.34.34,0,0,1,.28-.12h.7a.33.33,0,0,1,.25.1.89.89,0,0,1,.15.29l1.39,4.36,1.49-4.36a.8.8,0,0,1,.15-.29.3.3,0,0,1,.25-.1h.76a.4.4,0,0,1,.29.12.26.26,0,0,1,0,.27l-2.3,6v5a.42.42,0,0,1-.1.28.35.35,0,0,1-.29.12Z"/><path class="cls-1" d="M88.11,49.62a4.52,4.52,0,0,0,.06.74,1.87,1.87,0,0,0,.22.64,1.44,1.44,0,0,0,.47.45,2,2,0,0,0,1.61,0,1.2,1.2,0,0,0,.47-.45,1.87,1.87,0,0,0,.23-.65,6,6,0,0,0,0-.74v-8.3a.45.45,0,0,1,.1-.28.38.38,0,0,1,.28-.11h.58a.38.38,0,0,1,.39.37v8.85a6.27,6.27,0,0,1-.09.86,2.27,2.27,0,0,1-.39.92,2.58,2.58,0,0,1-.9.74,3.51,3.51,0,0,1-1.6.3,3.11,3.11,0,0,1-1.47-.3,2.62,2.62,0,0,1-.85-.7,2.3,2.3,0,0,1-.4-.87,4,4,0,0,1-.09-.77v-9a.36.36,0,0,1,.38-.38h.58a.38.38,0,0,1,.38.38h0Z"/><path class="cls-1" d="M96.52,43l.27,3.54v5.82a.43.43,0,0,1-.1.27.33.33,0,0,1-.29.13h-.57a.33.33,0,0,1-.28-.12.43.43,0,0,1-.11-.28V41.32a.39.39,0,0,1,.11-.27.36.36,0,0,1,.28-.12h1a.28.28,0,0,1,.26.13,2.1,2.1,0,0,1,.13.26l3.15,9.38-.25-3.38v-6a.48.48,0,0,1,.1-.28.33.33,0,0,1,.28-.12h.58a.35.35,0,0,1,.27.11.46.46,0,0,1,.11.29V52.42a.36.36,0,0,1-.11.26.33.33,0,0,1-.27.12h-1a.3.3,0,0,1-.27-.12,1.23,1.23,0,0,1-.12-.26Z"/><path class="cls-1" d="M105.15,52.79a.32.32,0,0,1-.27-.13.36.36,0,0,1-.12-.27V41.32a.42.42,0,0,1,.12-.26.32.32,0,0,1,.27-.13h.57a.36.36,0,0,1,.29.13.46.46,0,0,1,.1.26V52.39a.45.45,0,0,1-.1.27.36.36,0,0,1-.29.13Z"/><path class="cls-1" d="M111,52.79c-.2,0-.33-.13-.38-.38l-2.27-11.07a.34.34,0,0,1,.05-.28.39.39,0,0,1,.27-.11h.66c.22,0,.36.13.4.39l.69,3.6.9,5.3.88-5.3.69-3.61a.39.39,0,0,1,.4-.38h.66a.3.3,0,0,1,.26.11.3.3,0,0,1,0,.27L112,52.4c-.06.26-.18.38-.38.38Z"/><path class="cls-1" d="M121.86,52.41a.37.37,0,0,1-.13.27.39.39,0,0,1-.27.11H117a.37.37,0,0,1-.27-.13.39.39,0,0,1-.11-.27V41.32a.41.41,0,0,1,.11-.26.37.37,0,0,1,.27-.13h4.3a.43.43,0,0,1,.28.11.32.32,0,0,1,.12.28v.62a.36.36,0,0,1-.12.28.42.42,0,0,1-.28.1H118V46h2.87a.48.48,0,0,1,.28.1.35.35,0,0,1,.12.29V47a.36.36,0,0,1-.12.28.43.43,0,0,1-.28.11H118v4.11h3.46a.43.43,0,0,1,.27.1.36.36,0,0,1,.13.29Z"/><path class="cls-1" d="M130.1,52.41a.49.49,0,0,1,0,.24c0,.1-.14.14-.29.14h-.69a.43.43,0,0,1-.27-.08.6.6,0,0,1-.17-.3l-1.59-5.19H125.6v5.17a.39.39,0,0,1-.1.25.36.36,0,0,1-.29.13h-.57a.37.37,0,0,1-.28-.13.39.39,0,0,1-.1-.25V41.32a.36.36,0,0,1,.12-.28.47.47,0,0,1,.26-.11h2a7.23,7.23,0,0,1,1.67.17,1.75,1.75,0,0,1,1.06.76,2.84,2.84,0,0,1,.42,1,5.85,5.85,0,0,1,.12,1.32A3.89,3.89,0,0,1,129.6,46a2.1,2.1,0,0,1-1.17,1Zm-4.53-6.51h1.11a7,7,0,0,0,.79,0,1.22,1.22,0,0,0,.55-.23,1,1,0,0,0,.26-.25,1.67,1.67,0,0,0,.18-.28,1.38,1.38,0,0,0,.09-.39v-.57a3,3,0,0,0-.16-1.08,1.19,1.19,0,0,0-.42-.57,1.13,1.13,0,0,0-.27-.13,1.58,1.58,0,0,0-.38,0h-1.75Z"/><path class="cls-1" d="M137.89,49.55a3.68,3.68,0,0,1-.78,2.59,2.91,2.91,0,0,1-2.22.86,3.16,3.16,0,0,1-1.45-.31,2.41,2.41,0,0,1-.95-.84,3,3,0,0,1-.48-1.16,7.09,7.09,0,0,1-.13-1.38v-.17a.38.38,0,0,1,.1-.27.34.34,0,0,1,.28-.11h.59a.32.32,0,0,1,.27.11.34.34,0,0,1,.1.27v.18a4.11,4.11,0,0,0,.13,1.11,2.16,2.16,0,0,0,.36.69,1.25,1.25,0,0,0,.52.36,1.73,1.73,0,0,0,.63.1,1.65,1.65,0,0,0,1.21-.45,2.1,2.1,0,0,0,.46-1.54,1.79,1.79,0,0,0-.33-1.08,3.63,3.63,0,0,0-.83-.83,11.48,11.48,0,0,0-1.08-.77,8.15,8.15,0,0,1-1-.82,4,4,0,0,1-.83-1.08,3,3,0,0,1-.33-1.47,3.08,3.08,0,0,1,.18-1,2.58,2.58,0,0,1,.52-.89,2.5,2.5,0,0,1,.86-.61,3,3,0,0,1,1.21-.23,2.92,2.92,0,0,1,1.2.23,2.84,2.84,0,0,1,.86.6,2.65,2.65,0,0,1,.52.87,3,3,0,0,1,.17,1v.11a.38.38,0,0,1-.37.39h-.6a.36.36,0,0,1-.28-.12.54.54,0,0,1-.11-.27v0a1.42,1.42,0,0,0-.37-1,1.36,1.36,0,0,0-1-.41,2,2,0,0,0-.69.12,1.26,1.26,0,0,0-.7.78,1.88,1.88,0,0,0-.07.53,1.7,1.7,0,0,0,.33,1.05,3.89,3.89,0,0,0,.83.84,12.88,12.88,0,0,0,1.07.79,8.87,8.87,0,0,1,1.07.85,3.81,3.81,0,0,1,.83,1A2.74,2.74,0,0,1,137.89,49.55Z"/><path class="cls-1" d="M140.88,52.79a.37.37,0,0,1-.28-.13.39.39,0,0,1-.11-.27V41.32a.47.47,0,0,1,.11-.26.37.37,0,0,1,.28-.13h.6a.36.36,0,0,1,.29.13.45.45,0,0,1,.09.26V52.39a.44.44,0,0,1-.09.27.36.36,0,0,1-.29.13Z"/><path class="cls-1" d="M150.14,41.94a.36.36,0,0,1-.12.28.48.48,0,0,1-.28.1h-1.89V52.39a.39.39,0,0,1-.11.27.34.34,0,0,1-.28.13h-.58a.37.37,0,0,1-.27-.13.39.39,0,0,1-.11-.27V42.29h-1.93a.38.38,0,0,1-.26-.11.36.36,0,0,1-.12-.27v-.58a.33.33,0,0,1,.12-.28.37.37,0,0,1,.26-.1h5.17a.42.42,0,0,1,.28.1.33.33,0,0,1,.12.28Z"/><path class="cls-1" d="M153.88,52.79a.34.34,0,0,1-.27-.13.39.39,0,0,1-.11-.27v-5l-2.19-6a.26.26,0,0,1,0-.27.36.36,0,0,1,.29-.11h.69a.29.29,0,0,1,.25.1,1,1,0,0,1,.16.28l1.38,4.37,1.49-4.37a.76.76,0,0,1,.15-.28A.3.3,0,0,1,156,41h.76a.33.33,0,0,1,.28.11.23.23,0,0,1,0,.27l-2.3,6v5a.39.39,0,0,1-.38.4Z"/><path class="cls-1" d="M168.79,52.41a.36.36,0,0,1-.12.27.43.43,0,0,1-.28.11h-4.15a.37.37,0,0,1-.28-.13.39.39,0,0,1-.11-.27V41.32a.47.47,0,0,1,.11-.26.37.37,0,0,1,.28-.13h.57a.36.36,0,0,1,.29.13.39.39,0,0,1,.09.26V51.45h3.23a.38.38,0,0,1,.27.1.34.34,0,0,1,.13.28Z"/><path class="cls-1" d="M171.41,52.79a.32.32,0,0,1-.27-.13.39.39,0,0,1-.11-.27V41.32a.36.36,0,0,1,.11-.26.32.32,0,0,1,.27-.13H172a.31.31,0,0,1,.28.13.41.41,0,0,1,.11.26V52.39a.39.39,0,0,1-.11.27.31.31,0,0,1-.28.13Z"/><path class="cls-1" d="M178,41a9.87,9.87,0,0,1,1.22.06,2.44,2.44,0,0,1,.88.27,2.08,2.08,0,0,1,.9,1,3.76,3.76,0,0,1,.29,1.48,4.62,4.62,0,0,1-.27,1.88,1.76,1.76,0,0,1-.37.52,2.37,2.37,0,0,1-.46.32,1.65,1.65,0,0,1,1,.9,4,4,0,0,1,.32,1.77,11.17,11.17,0,0,1-.08,1.29,2.86,2.86,0,0,1-.4,1.17,2.23,2.23,0,0,1-.91.84,3.34,3.34,0,0,1-1.62.32h-2.41a.37.37,0,0,1-.28-.13.38.38,0,0,1-.1-.27V41.32a.32.32,0,0,1,.12-.28.36.36,0,0,1,.26-.11ZM177,45.9h1a6,6,0,0,0,.73,0,1.12,1.12,0,0,0,1-.85,3.49,3.49,0,0,0,.14-1.16,2.11,2.11,0,0,0-.15-.86,1,1,0,0,0-.41-.47,1.41,1.41,0,0,0-.63-.2H177Zm0,1.34v4.21h1.38a3.2,3.2,0,0,0,.75-.09,1.11,1.11,0,0,0,.55-.35,1.68,1.68,0,0,0,.35-.69,5.28,5.28,0,0,0,.11-1.19,2.86,2.86,0,0,0-.13-1,1.14,1.14,0,0,0-.41-.56,1.4,1.4,0,0,0-.65-.28,4.77,4.77,0,0,0-.92-.08Z"/><path class="cls-1" d="M190.05,52.41a.33.33,0,0,1,0,.24.28.28,0,0,1-.28.14h-.7a.39.39,0,0,1-.27-.08.59.59,0,0,1-.16-.3L187,47.22h-1.49v5.17a.46.46,0,0,1-.1.25.35.35,0,0,1-.28.13h-.58a.37.37,0,0,1-.28-.13.47.47,0,0,1-.11-.25V41.32a.37.37,0,0,1,.13-.28.5.5,0,0,1,.26-.11h2a7.12,7.12,0,0,1,1.67.17,1.77,1.77,0,0,1,1.07.76,3,3,0,0,1,.41,1,6,6,0,0,1,.13,1.34,4,4,0,0,1-.33,1.84,2.19,2.19,0,0,1-1.17,1Zm-4.52-6.51h1.11a7.14,7.14,0,0,0,.8,0,1.14,1.14,0,0,0,.54-.23,1.27,1.27,0,0,0,.27-.25,1.17,1.17,0,0,0,.17-.28,1.86,1.86,0,0,0,.1-.39v-.57a3,3,0,0,0-.15-1.08,1.19,1.19,0,0,0-.42-.57,1.13,1.13,0,0,0-.27-.13,1.58,1.58,0,0,0-.38,0h-1.8Z"/><path class="cls-1" d="M195.24,41c.21,0,.34.13.39.38l2.21,11.07a.28.28,0,0,1-.31.38h-.65c-.23,0-.36-.12-.41-.38l-.42-2h-2.29l-.4,2a.39.39,0,0,1-.4.38h-.65a.32.32,0,0,1-.27-.11.3.3,0,0,1,0-.27l2.22-11.07a.61.61,0,0,1,.11-.28.39.39,0,0,1,.27-.11Zm.59,8.15L195.18,45,195,42.69h-.07L194.64,45,194,49.1Z"/><path class="cls-1" d="M206.2,52.41a.33.33,0,0,1,0,.24c0,.1-.14.14-.29.14h-.69a.43.43,0,0,1-.27-.08.6.6,0,0,1-.17-.3l-1.59-5.19h-1.49v5.17a.39.39,0,0,1-.1.25.36.36,0,0,1-.29.13h-.57a.37.37,0,0,1-.28-.13.39.39,0,0,1-.1-.25V41.32a.36.36,0,0,1,.12-.28.47.47,0,0,1,.26-.11h2a7.23,7.23,0,0,1,1.67.17,1.71,1.71,0,0,1,1.06.76,2.64,2.64,0,0,1,.41,1,5.33,5.33,0,0,1,.13,1.32,4,4,0,0,1-.33,1.84,2.15,2.15,0,0,1-1.18,1Zm-4.54-6.51h1.11a7.14,7.14,0,0,0,.8,0,2.23,2.23,0,0,0,.86-.46,1.17,1.17,0,0,0,.17-.28,1.38,1.38,0,0,0,.09-.39,2.72,2.72,0,0,0,0-.57,3,3,0,0,0-.15-1.08,1.18,1.18,0,0,0-.42-.56.87.87,0,0,0-.27-.14,1.65,1.65,0,0,0-.38-.05h-1.81Z"/><path class="cls-1" d="M210.12,52.79a.37.37,0,0,1-.27-.13.39.39,0,0,1-.11-.27v-5l-2.18-6a.26.26,0,0,1,0-.27.34.34,0,0,1,.28-.11h.7a.31.31,0,0,1,.25.1,1.51,1.51,0,0,1,.15.28l1.38,4.37,1.49-4.37a1.08,1.08,0,0,1,.15-.28.31.31,0,0,1,.26-.1H213a.33.33,0,0,1,.28.11.25.25,0,0,1,0,.27l-2.3,6v5a.38.38,0,0,1-.1.27.33.33,0,0,1-.29.13Z"/></g></svg>