<?xml version="1.0" encoding="utf-8"?>
<!-- Generator: Adobe Illustrator 26.2.1, SVG Export Plug-In . SVG Version: 6.00 Build 0)  -->
<svg version="1.1" id="TIB_Logo" xmlns="http://www.w3.org/2000/svg" xmlns:xlink="http://www.w3.org/1999/xlink" x="0px" y="0px"
	 width="400.4px" height="76.5px" viewBox="0 0 400.4 76.5" style="enable-background:new 0 0 400.4 76.5;" xml:space="preserve">
<style type="text/css">
	.st0{fill:#FFFFFF;}
</style>
<g>
	<g>
		<g>
			<g>
				<path class="st0" d="M52.5,76.5H49c-1.2,0-2.2-0.5-3-1.3c-0.7-0.8-1.1-1.8-1.1-2.8V4c0-1,0.4-1.9,1.1-2.7C46.7,0.5,47.8,0,49,0
					h3.5c1.3,0,2.3,0.5,3.1,1.4c0.7,0.8,1,1.7,1,2.6v68.4c0,1-0.3,1.9-1,2.7C54.8,76.1,53.7,76.5,52.5,76.5z"/>
			</g>
			<g>
				<path class="st0" d="M21.9,76.5h-3.5c-1.2,0-2.2-0.5-3-1.4c-0.7-0.8-1.1-1.8-1.1-2.8V11.6H4c-1,0-1.9-0.4-2.7-1.1
					C0.5,9.8,0,8.7,0,7.6V4C0,2.8,0.5,1.7,1.4,1C2.2,0.3,3.1,0,4,0H36c1,0,1.9,0.3,2.7,1c0.9,0.7,1.4,1.8,1.4,3v3.5
					c0,1.2-0.5,2.2-1.4,3C38,11.2,37,11.6,36,11.6H25.9v60.8c0,1-0.3,1.9-1,2.7C24.2,76.1,23.1,76.5,21.9,76.5z"/>
			</g>
		</g>
		<g>
			<path class="st0" d="M84.6,76.5h-15c-1.2,0-2.2-0.5-3-1.3c-0.7-0.8-1.1-1.8-1.1-2.8V4c0-1.3,0.5-2.3,1.4-3.1c0.8-0.7,1.7-1,2.6-1
				h11.7c3,0,5.6,0.1,7.8,0.4c2.4,0.3,4.4,0.9,6,1.9c2.8,1.6,4.9,3.9,6.2,7.1c1.3,3,2,6.3,2,9.8c0,5.7-0.6,9.7-1.8,12.3
				c-0.9,1.7-1.8,2.9-2.7,3.7c-0.2,0.2-0.4,0.3-0.6,0.5c2,1.2,3.5,2.9,4.5,5.1c1.4,2.9,2.1,6.9,2.1,11.7c0,2.7-0.2,5.5-0.5,8.2
				c-0.4,2.9-1.3,5.5-2.7,7.8c-1.4,2.4-3.5,4.3-6.3,5.8C92.7,75.8,89.1,76.5,84.6,76.5z M77.2,64.9H84c1.6,0,3-0.2,4.2-0.5
				c1-0.3,1.9-0.8,2.6-1.6c0.7-0.8,1.3-2.1,1.8-3.7c0.4-1.7,0.7-4.1,0.7-6.9c0-2.2-0.2-4-0.7-5.4c-0.4-1.2-1.1-2.1-1.9-2.8
				c-0.9-0.7-2-1.1-3.4-1.4c-1.5-0.3-3.3-0.4-5.3-0.4h-4.7V64.9z M77.2,30.6h4.9c1.5,0,3-0.1,4.3-0.2c1.1-0.1,2.1-0.5,2.9-1.1
				c0.8-0.6,1.4-1.6,1.9-3c0.5-1.5,0.8-3.8,0.8-6.7c0-2-0.3-3.6-0.8-4.6c-0.5-1-1.1-1.7-1.9-2.2c-0.9-0.5-1.9-0.8-3.2-1
				c-1.5-0.1-3.1-0.2-4.8-0.2h-4.1V30.6z"/>
		</g>
	</g>
	<g>
		<path class="st0" d="M132.9,16.8c0,0.2-0.1,0.3-0.2,0.4c-0.1,0.1-0.3,0.2-0.4,0.2h-6c-0.2,0-0.3-0.1-0.4-0.2
			c-0.1-0.1-0.2-0.3-0.2-0.4v-16c0-0.1,0.1-0.3,0.2-0.4c0.1-0.1,0.2-0.2,0.4-0.2h0.8c0.2,0,0.3,0.1,0.4,0.2c0.1,0.1,0.1,0.2,0.1,0.4
			v14.6h4.7c0.1,0,0.3,0,0.4,0.1c0.1,0.1,0.2,0.2,0.2,0.4V16.8z"/>
		<path class="st0" d="M143.3,16.8c0,0.2-0.1,0.3-0.2,0.4c-0.1,0.1-0.3,0.2-0.4,0.2h-6.4c-0.2,0-0.3-0.1-0.4-0.2
			c-0.1-0.1-0.2-0.3-0.2-0.4v-16c0-0.1,0.1-0.3,0.2-0.4c0.1-0.1,0.2-0.2,0.4-0.2h6.2c0.1,0,0.3,0,0.4,0.1c0.1,0.1,0.2,0.2,0.2,0.4
			v0.8c0,0.2-0.1,0.3-0.2,0.4c-0.1,0.1-0.3,0.2-0.4,0.2h-4.8v5.4h4.1c0.1,0,0.3,0,0.4,0.1c0.1,0.1,0.2,0.2,0.2,0.4v0.8
			c0,0.2-0.1,0.3-0.2,0.4c-0.1,0.1-0.3,0.2-0.4,0.2h-4.1v5.9h5c0.1,0,0.3,0,0.4,0.1c0.1,0.1,0.2,0.2,0.2,0.4V16.8z"/>
		<path class="st0" d="M147.6,17.4c-0.2,0-0.3-0.1-0.4-0.2c-0.1-0.1-0.2-0.3-0.2-0.4v-16c0-0.1,0.1-0.3,0.2-0.4
			c0.1-0.1,0.2-0.2,0.4-0.2h0.8c0.2,0,0.3,0.1,0.4,0.2c0.1,0.1,0.1,0.2,0.1,0.4v16c0,0.1,0,0.3-0.1,0.4c-0.1,0.1-0.2,0.2-0.4,0.2
			H147.6z"/>
		<path class="st0" d="M157.1,0.2c0.7,0,1.3,0,1.8,0.1c0.5,0.1,0.9,0.2,1.3,0.4c0.6,0.3,1,0.8,1.3,1.5c0.3,0.7,0.4,1.4,0.4,2.1
			c0,1.3-0.1,2.2-0.4,2.7c-0.2,0.3-0.4,0.6-0.5,0.8c-0.2,0.2-0.4,0.3-0.7,0.5c0.7,0.2,1.2,0.7,1.5,1.3c0.3,0.6,0.5,1.5,0.5,2.6
			c0,0.6,0,1.3-0.1,1.9c-0.1,0.6-0.3,1.2-0.6,1.7c-0.3,0.5-0.7,0.9-1.3,1.2c-0.6,0.3-1.4,0.5-2.3,0.5h-3.5c-0.2,0-0.3-0.1-0.4-0.2
			c-0.1-0.1-0.2-0.3-0.2-0.4v-16c0-0.2,0.1-0.3,0.2-0.4c0.1-0.1,0.2-0.1,0.4-0.1H157.1z M155.7,7.4h1.5c0.4,0,0.7,0,1.1-0.1
			c0.3,0,0.6-0.2,0.9-0.3c0.2-0.2,0.4-0.5,0.6-0.9c0.1-0.4,0.2-1,0.2-1.7c0-0.5-0.1-1-0.2-1.2c-0.1-0.3-0.3-0.5-0.6-0.7
			c-0.3-0.2-0.6-0.2-0.9-0.3s-0.7,0-1.2,0h-1.3V7.4z M155.7,9.3v6.1h2c0.4,0,0.8,0,1.1-0.1c0.3-0.1,0.6-0.3,0.8-0.5
			c0.2-0.2,0.4-0.6,0.5-1c0.1-0.4,0.2-1,0.2-1.7c0-0.6-0.1-1-0.2-1.4c-0.1-0.4-0.3-0.6-0.6-0.8c-0.3-0.2-0.6-0.3-1-0.4
			c-0.4-0.1-0.8-0.1-1.3-0.1H155.7z"/>
		<path class="st0" d="M167.7,3.2l0.4,5.1v8.4c0,0.1,0,0.3-0.1,0.4c-0.1,0.1-0.2,0.2-0.4,0.2h-0.8c-0.2,0-0.3-0.1-0.4-0.2
			c-0.1-0.1-0.2-0.2-0.2-0.4v-16c0-0.1,0.1-0.3,0.2-0.4c0.1-0.1,0.2-0.2,0.4-0.2h1.5c0.2,0,0.3,0.1,0.4,0.2c0.1,0.1,0.1,0.2,0.2,0.4
			l4.6,13.6l-0.4-4.9V0.8c0-0.1,0-0.3,0.1-0.4c0.1-0.1,0.2-0.2,0.4-0.2h0.8c0.2,0,0.3,0.1,0.4,0.2c0.1,0.1,0.2,0.3,0.2,0.4v16
			c0,0.1-0.1,0.3-0.2,0.4c-0.1,0.1-0.2,0.2-0.4,0.2h-1.5c-0.2,0-0.3-0.1-0.4-0.2c-0.1-0.1-0.1-0.2-0.2-0.4L167.7,3.2z"/>
		<path class="st0" d="M180.2,17.4c-0.2,0-0.3-0.1-0.4-0.2c-0.1-0.1-0.2-0.3-0.2-0.4v-16c0-0.1,0.1-0.3,0.2-0.4s0.2-0.2,0.4-0.2h0.8
			c0.2,0,0.3,0.1,0.4,0.2c0.1,0.1,0.1,0.2,0.1,0.4v16c0,0.1,0,0.3-0.1,0.4c-0.1,0.1-0.2,0.2-0.4,0.2H180.2z"/>
		<path class="st0" d="M185.6,17.4c-0.2,0-0.4-0.1-0.4-0.2c-0.1-0.1-0.1-0.3-0.1-0.4v-1.2c0-0.1,0-0.3,0.1-0.5
			c0.1-0.2,0.2-0.4,0.2-0.5l5.5-12.4h-5.1c-0.1,0-0.3-0.1-0.4-0.2c-0.1-0.1-0.2-0.2-0.2-0.4V0.8c0-0.2,0.1-0.3,0.2-0.4
			c0.1-0.1,0.3-0.1,0.4-0.1h6.6c0.2,0,0.3,0.1,0.4,0.2s0.2,0.2,0.2,0.4v1.3c0,0.1,0,0.2,0,0.3c0,0.1-0.1,0.2-0.1,0.2l-5.7,12.8h5.7
			c0.1,0,0.3,0,0.4,0.1c0.1,0.1,0.2,0.2,0.2,0.4v0.8c0,0.2-0.1,0.3-0.2,0.4c-0.1,0.1-0.3,0.2-0.4,0.2H185.6z"/>
		<path class="st0" d="M203.8,17.4c-0.2,0-0.3-0.1-0.4-0.2c-0.1-0.1-0.2-0.3-0.2-0.4v-16c0-0.1,0.1-0.3,0.2-0.4
			c0.1-0.1,0.2-0.2,0.4-0.2h0.8c0.2,0,0.3,0.1,0.4,0.2c0.1,0.1,0.1,0.2,0.1,0.4v16c0,0.1,0,0.3-0.1,0.4c-0.1,0.1-0.2,0.2-0.4,0.2
			H203.8z"/>
		<path class="st0" d="M211.5,3.2l0.4,5.1v8.4c0,0.1,0,0.3-0.1,0.4c-0.1,0.1-0.2,0.2-0.4,0.2h-0.8c-0.2,0-0.3-0.1-0.4-0.2
			c-0.1-0.1-0.2-0.2-0.2-0.4v-16c0-0.1,0.1-0.3,0.2-0.4c0.1-0.1,0.2-0.2,0.4-0.2h1.5c0.2,0,0.3,0.1,0.4,0.2c0.1,0.1,0.1,0.2,0.2,0.4
			l4.6,13.6l-0.4-4.9V0.8c0-0.1,0-0.3,0.1-0.4c0.1-0.1,0.2-0.2,0.4-0.2h0.8c0.2,0,0.3,0.1,0.4,0.2c0.1,0.1,0.2,0.3,0.2,0.4v16
			c0,0.1-0.1,0.3-0.2,0.4c-0.1,0.1-0.2,0.2-0.4,0.2h-1.5c-0.2,0-0.3-0.1-0.4-0.2c-0.1-0.1-0.1-0.2-0.2-0.4L211.5,3.2z"/>
		<path class="st0" d="M229.8,8.9c0,0.2-0.1,0.3-0.2,0.4c-0.1,0.1-0.3,0.2-0.4,0.2H225v7.3c0,0.1,0,0.3-0.1,0.4
			c-0.1,0.1-0.2,0.2-0.4,0.2h-0.8c-0.2,0-0.3-0.1-0.4-0.2c-0.1-0.1-0.2-0.3-0.2-0.4v-16c0-0.1,0.1-0.3,0.2-0.4
			c0.1-0.1,0.2-0.2,0.4-0.2h6.2c0.1,0,0.3,0,0.4,0.1c0.1,0.1,0.2,0.2,0.2,0.4v0.8c0,0.2-0.1,0.3-0.2,0.4c-0.1,0.1-0.3,0.2-0.4,0.2
			H225v5.4h4.1c0.1,0,0.3,0,0.4,0.1c0.1,0.1,0.2,0.2,0.2,0.4V8.9z"/>
		<path class="st0" d="M237.4,17.6c-0.9,0-1.6-0.2-2.2-0.5c-0.5-0.3-1-0.7-1.2-1.1c-0.3-0.4-0.5-0.9-0.6-1.4
			c-0.1-0.5-0.2-0.9-0.2-1.3c-0.1-1.6-0.1-3.1-0.1-4.6c0-1.5,0-3,0.1-4.6c0-0.4,0.1-0.8,0.2-1.3c0.1-0.5,0.3-0.9,0.6-1.4
			c0.3-0.4,0.7-0.8,1.2-1.1c0.5-0.3,1.3-0.4,2.2-0.4c0.9,0,1.6,0.2,2.2,0.4c0.5,0.3,1,0.7,1.2,1.1c0.3,0.4,0.5,0.9,0.6,1.4
			c0.1,0.5,0.2,0.9,0.2,1.3c0.1,1.6,0.1,3.1,0.1,4.6c0,1.5,0,3-0.1,4.6c0,0.4-0.1,0.8-0.2,1.3c-0.1,0.5-0.3,1-0.6,1.4
			c-0.3,0.4-0.7,0.8-1.2,1.1C239,17.5,238.3,17.6,237.4,17.6z M237.4,1.9c-0.5,0-0.8,0.1-1.1,0.3c-0.3,0.2-0.5,0.4-0.7,0.7
			c-0.2,0.3-0.3,0.6-0.3,1c-0.1,0.4-0.1,0.7-0.1,1.1c-0.1,1.3-0.1,2.6-0.1,3.8c0,1.2,0,2.5,0.1,3.8c0,0.4,0.1,0.7,0.1,1.1
			c0.1,0.4,0.2,0.7,0.3,1c0.2,0.3,0.4,0.5,0.7,0.7c0.3,0.2,0.7,0.3,1.1,0.3c0.5,0,0.8-0.1,1.1-0.3c0.3-0.2,0.5-0.4,0.7-0.7
			c0.2-0.3,0.3-0.6,0.3-1c0.1-0.4,0.1-0.7,0.1-1.1c0-1.3,0.1-2.6,0.1-3.8c0-1.2,0-2.5-0.1-3.8c0-0.4-0.1-0.7-0.1-1.1
			c-0.1-0.4-0.2-0.7-0.3-1c-0.2-0.3-0.4-0.5-0.7-0.7C238.2,2,237.8,1.9,237.4,1.9z"/>
		<path class="st0" d="M254,16.8c0,0.1,0,0.2,0,0.4c-0.1,0.1-0.2,0.2-0.4,0.2h-1c-0.2,0-0.3,0-0.4-0.1c-0.1-0.1-0.2-0.2-0.2-0.4
			l-2.3-7.5l-2.2,0v7.5c0,0.1,0,0.3-0.1,0.4c-0.1,0.1-0.2,0.2-0.4,0.2h-0.8c-0.2,0-0.3-0.1-0.4-0.2c-0.1-0.1-0.2-0.2-0.2-0.4v-16
			c0-0.2,0.1-0.3,0.2-0.4c0.1-0.1,0.2-0.2,0.4-0.2h2.9c1,0,1.8,0.1,2.4,0.2c0.7,0.2,1.2,0.5,1.5,1.1c0.3,0.4,0.5,0.9,0.6,1.4
			c0.1,0.5,0.2,1.2,0.2,1.9c0,1.2-0.2,2.1-0.5,2.7c-0.3,0.6-0.9,1.1-1.7,1.4L254,16.8z M247.5,7.4h1.6c0.5,0,0.9,0,1.2-0.1
			c0.3,0,0.6-0.2,0.8-0.3c0.2-0.1,0.3-0.2,0.4-0.4c0.1-0.1,0.2-0.3,0.2-0.4c0.1-0.2,0.1-0.3,0.1-0.6c0-0.2,0-0.5,0-0.8
			c0-0.7-0.1-1.2-0.2-1.6c-0.1-0.4-0.3-0.6-0.6-0.8c-0.1-0.1-0.3-0.1-0.4-0.2c-0.1,0-0.3-0.1-0.6-0.1c-0.2,0-0.6,0-1,0
			c-0.4,0-0.9,0-1.6,0V7.4z"/>
		<path class="st0" d="M259.5,3L259.5,3l0.2,7.5v6.3c0,0.1,0,0.3-0.1,0.4c-0.1,0.1-0.2,0.2-0.4,0.2h-0.8c-0.2,0-0.3-0.1-0.4-0.2
			c-0.1-0.1-0.2-0.3-0.2-0.4v-16c0-0.1,0.1-0.3,0.2-0.4c0.1-0.1,0.2-0.2,0.4-0.2h1.5c0.2,0,0.3,0,0.4,0.1c0.1,0.1,0.1,0.2,0.2,0.4
			l1.9,7.7l0.5,2.7h0.1l0.5-2.7l1.9-7.7c0.1-0.4,0.3-0.5,0.6-0.5h1.6c0.2,0,0.3,0.1,0.4,0.2c0.1,0.1,0.1,0.2,0.1,0.4v16
			c0,0.1,0,0.3-0.1,0.4c-0.1,0.1-0.2,0.2-0.4,0.2h-0.8c-0.1,0-0.3-0.1-0.4-0.2c-0.1-0.1-0.2-0.3-0.2-0.4v-6.3l0.3-7.5h-0.1
			l-2.3,10.6c0,0.2-0.1,0.3-0.2,0.4c-0.1,0.1-0.2,0.1-0.4,0.1h-0.8c-0.1,0-0.3-0.1-0.4-0.2c-0.1-0.1-0.2-0.2-0.2-0.4L259.5,3z"/>
		<path class="st0" d="M276.2,0.2c0.3,0,0.5,0.2,0.6,0.6l3.2,16c0,0.2,0,0.3-0.1,0.4c-0.1,0.1-0.2,0.2-0.4,0.2h-0.9
			c-0.3,0-0.5-0.2-0.6-0.6l-0.6-2.8h-3.3l-0.6,2.8c-0.1,0.4-0.3,0.6-0.6,0.6h-0.9c-0.2,0-0.3-0.1-0.4-0.2c-0.1-0.1-0.1-0.2-0.1-0.4
			l3.2-16c0-0.2,0.1-0.3,0.2-0.4c0.1-0.1,0.2-0.2,0.4-0.2H276.2z M277.1,12l-0.9-6l-0.3-3.3h-0.1L275.3,6l-0.9,6H277.1z"/>
		<path class="st0" d="M289.9,1.6c0,0.2-0.1,0.3-0.2,0.4c-0.1,0.1-0.3,0.2-0.4,0.2h-2.7v14.6c0,0.1,0,0.3-0.1,0.4
			c-0.1,0.1-0.2,0.2-0.4,0.2h-0.8c-0.2,0-0.3-0.1-0.4-0.2c-0.1-0.1-0.2-0.3-0.2-0.4V2.2h-2.8c-0.1,0-0.3-0.1-0.4-0.2
			c-0.1-0.1-0.2-0.2-0.2-0.4V0.8c0-0.2,0.1-0.3,0.2-0.4c0.1-0.1,0.2-0.1,0.4-0.1h7.5c0.1,0,0.3,0,0.4,0.1c0.1,0.1,0.2,0.2,0.2,0.4
			V1.6z"/>
		<path class="st0" d="M293.9,17.4c-0.2,0-0.3-0.1-0.4-0.2c-0.1-0.1-0.2-0.3-0.2-0.4v-16c0-0.1,0.1-0.3,0.2-0.4
			c0.1-0.1,0.2-0.2,0.4-0.2h0.8c0.2,0,0.3,0.1,0.4,0.2c0.1,0.1,0.1,0.2,0.1,0.4v16c0,0.1,0,0.3-0.1,0.4c-0.1,0.1-0.2,0.2-0.4,0.2
			H293.9z"/>
		<path class="st0" d="M303.8,17.6c-0.9,0-1.6-0.2-2.2-0.5c-0.5-0.3-1-0.7-1.2-1.1c-0.3-0.4-0.5-0.9-0.6-1.4
			c-0.1-0.5-0.2-0.9-0.2-1.3c-0.1-1.6-0.1-3.1-0.1-4.6c0-1.5,0-3,0.1-4.6c0-0.4,0.1-0.8,0.2-1.3c0.1-0.5,0.3-0.9,0.6-1.4
			c0.3-0.4,0.7-0.8,1.2-1.1c0.5-0.3,1.3-0.4,2.2-0.4c0.9,0,1.6,0.2,2.2,0.4c0.5,0.3,1,0.7,1.2,1.1c0.3,0.4,0.5,0.9,0.6,1.4
			c0.1,0.5,0.2,0.9,0.2,1.3c0.1,1.6,0.1,3.1,0.1,4.6c0,1.5,0,3-0.1,4.6c0,0.4-0.1,0.8-0.2,1.3c-0.1,0.5-0.3,1-0.6,1.4
			c-0.3,0.4-0.7,0.8-1.2,1.1C305.4,17.5,304.7,17.6,303.8,17.6z M303.8,1.9c-0.5,0-0.8,0.1-1.1,0.3c-0.3,0.2-0.5,0.4-0.7,0.7
			c-0.2,0.3-0.3,0.6-0.3,1c-0.1,0.4-0.1,0.7-0.1,1.1c-0.1,1.3-0.1,2.6-0.1,3.8c0,1.2,0,2.5,0.1,3.8c0,0.4,0.1,0.7,0.1,1.1
			c0.1,0.4,0.2,0.7,0.3,1c0.2,0.3,0.4,0.5,0.7,0.7c0.3,0.2,0.7,0.3,1.1,0.3c0.5,0,0.8-0.1,1.1-0.3c0.3-0.2,0.5-0.4,0.7-0.7
			c0.2-0.3,0.3-0.6,0.3-1c0.1-0.4,0.1-0.7,0.1-1.1c0-1.3,0.1-2.6,0.1-3.8c0-1.2,0-2.5-0.1-3.8c0-0.4-0.1-0.7-0.1-1.1
			c-0.1-0.4-0.2-0.7-0.3-1c-0.2-0.3-0.4-0.5-0.7-0.7C304.6,2,304.2,1.9,303.8,1.9z"/>
		<path class="st0" d="M313.5,3.2l0.4,5.1v8.4c0,0.1,0,0.3-0.1,0.4c-0.1,0.1-0.2,0.2-0.4,0.2h-0.8c-0.2,0-0.3-0.1-0.4-0.2
			c-0.1-0.1-0.2-0.2-0.2-0.4v-16c0-0.1,0.1-0.3,0.2-0.4c0.1-0.1,0.2-0.2,0.4-0.2h1.5c0.2,0,0.3,0.1,0.4,0.2c0.1,0.1,0.1,0.2,0.2,0.4
			l4.6,13.6l-0.4-4.9V0.8c0-0.1,0-0.3,0.1-0.4c0.1-0.1,0.2-0.2,0.4-0.2h0.8c0.2,0,0.3,0.1,0.4,0.2c0.1,0.1,0.2,0.3,0.2,0.4v16
			c0,0.1-0.1,0.3-0.2,0.4c-0.1,0.1-0.2,0.2-0.4,0.2h-1.5c-0.2,0-0.3-0.1-0.4-0.2c-0.1-0.1-0.1-0.2-0.2-0.4L313.5,3.2z"/>
		<path class="st0" d="M339.1,4.7c0,0.2,0,0.3-0.1,0.4c-0.1,0.1-0.2,0.2-0.4,0.2h-0.8c-0.2,0-0.3-0.1-0.4-0.2
			c-0.1-0.1-0.2-0.2-0.2-0.4V4.3c0-0.3,0-0.6-0.1-0.9c-0.1-0.3-0.2-0.5-0.3-0.8c-0.2-0.2-0.4-0.4-0.6-0.5c-0.2-0.1-0.6-0.2-0.9-0.2
			c-0.5,0-0.9,0.1-1.2,0.2c-0.3,0.2-0.5,0.4-0.7,0.6s-0.3,0.6-0.3,0.9C333,4.1,333,4.5,333,4.9c0,0.7-0.1,1.4-0.1,2
			c0,0.6,0,1.3,0,1.9c0,0.6,0,1.2,0,1.8c0,0.6,0.1,1.3,0.1,2c0,0.4,0.1,0.7,0.1,1.1c0.1,0.4,0.2,0.7,0.3,1c0.2,0.3,0.4,0.5,0.7,0.7
			c0.3,0.2,0.7,0.3,1.2,0.3c0.4,0,0.7-0.1,1-0.2c0.3-0.2,0.5-0.4,0.7-0.7c0.2-0.3,0.3-0.6,0.3-0.9c0.1-0.3,0.1-0.7,0.1-1.1v-0.9
			c0-0.2,0-0.3,0.1-0.4c0.1-0.1,0.2-0.2,0.4-0.2h0.8c0.2,0,0.3,0.1,0.4,0.2c0.1,0.1,0.2,0.2,0.2,0.4v1.6c0,0.4-0.1,0.8-0.2,1.2
			c-0.1,0.5-0.3,0.9-0.6,1.3c-0.3,0.4-0.7,0.8-1.3,1.1c-0.6,0.3-1.3,0.4-2.1,0.4c-0.9,0-1.6-0.2-2.1-0.5c-0.5-0.3-0.9-0.7-1.2-1.1
			c-0.3-0.4-0.5-0.9-0.6-1.3c-0.1-0.5-0.2-0.8-0.2-1.2c-0.1-0.8-0.1-1.6-0.1-2.4c0-0.8,0-1.5,0-2.3c0-0.8,0-1.5,0-2.3
			c0-0.8,0.1-1.6,0.1-2.4c0-0.4,0.1-0.8,0.2-1.2c0.1-0.5,0.3-0.9,0.6-1.4c0.3-0.4,0.7-0.8,1.3-1.1c0.6-0.3,1.3-0.4,2.3-0.4
			c0.8,0,1.4,0.1,1.9,0.4c0.5,0.3,0.9,0.6,1.2,1s0.5,0.8,0.6,1.2c0.1,0.4,0.1,0.8,0.1,1.1V4.7z"/>
		<path class="st0" d="M350.3,16.8c0,0.2-0.1,0.3-0.2,0.4c-0.1,0.1-0.3,0.2-0.4,0.2h-6.4c-0.2,0-0.3-0.1-0.4-0.2
			c-0.1-0.1-0.2-0.3-0.2-0.4v-16c0-0.1,0.1-0.3,0.2-0.4c0.1-0.1,0.2-0.2,0.4-0.2h6.2c0.1,0,0.3,0,0.4,0.1c0.1,0.1,0.2,0.2,0.2,0.4
			v0.8c0,0.2-0.1,0.3-0.2,0.4c-0.1,0.1-0.3,0.2-0.4,0.2h-4.8v5.4h4.1c0.1,0,0.3,0,0.4,0.1s0.2,0.2,0.2,0.4v0.8
			c0,0.2-0.1,0.3-0.2,0.4c-0.1,0.1-0.3,0.2-0.4,0.2h-4.1v5.9h5c0.1,0,0.3,0,0.4,0.1c0.1,0.1,0.2,0.2,0.2,0.4V16.8z"/>
		<path class="st0" d="M355.2,3.2l0.4,5.1v8.4c0,0.1,0,0.3-0.1,0.4c-0.1,0.1-0.2,0.2-0.4,0.2h-0.8c-0.2,0-0.3-0.1-0.4-0.2
			c-0.1-0.1-0.2-0.2-0.2-0.4v-16c0-0.1,0.1-0.3,0.2-0.4c0.1-0.1,0.2-0.2,0.4-0.2h1.5c0.2,0,0.3,0.1,0.4,0.2c0.1,0.1,0.1,0.2,0.2,0.4
			l4.6,13.6l-0.4-4.9V0.8c0-0.1,0-0.3,0.1-0.4c0.1-0.1,0.2-0.2,0.4-0.2h0.8c0.2,0,0.3,0.1,0.4,0.2c0.1,0.1,0.2,0.3,0.2,0.4v16
			c0,0.1-0.1,0.3-0.2,0.4c-0.1,0.1-0.2,0.2-0.4,0.2h-1.5c-0.2,0-0.3-0.1-0.4-0.2c-0.1-0.1-0.1-0.2-0.2-0.4L355.2,3.2z"/>
		<path class="st0" d="M374.1,1.6c0,0.2-0.1,0.3-0.2,0.4c-0.1,0.1-0.3,0.2-0.4,0.2h-2.7v14.6c0,0.1,0,0.3-0.1,0.4
			c-0.1,0.1-0.2,0.2-0.4,0.2h-0.8c-0.2,0-0.3-0.1-0.4-0.2c-0.1-0.1-0.2-0.3-0.2-0.4V2.2H366c-0.1,0-0.3-0.1-0.4-0.2
			c-0.1-0.1-0.2-0.2-0.2-0.4V0.8c0-0.2,0.1-0.3,0.2-0.4c0.1-0.1,0.2-0.1,0.4-0.1h7.5c0.1,0,0.3,0,0.4,0.1c0.1,0.1,0.2,0.2,0.2,0.4
			V1.6z"/>
		<path class="st0" d="M385.6,16.8c0,0.1,0,0.2,0,0.4c-0.1,0.1-0.2,0.2-0.4,0.2h-1c-0.2,0-0.3,0-0.4-0.1c-0.1-0.1-0.2-0.2-0.2-0.4
			l-2.3-7.5l-2.2,0v7.5c0,0.1,0,0.3-0.1,0.4c-0.1,0.1-0.2,0.2-0.4,0.2h-0.8c-0.2,0-0.3-0.1-0.4-0.2c-0.1-0.1-0.2-0.2-0.2-0.4v-16
			c0-0.2,0.1-0.3,0.2-0.4c0.1-0.1,0.2-0.2,0.4-0.2h2.9c1,0,1.8,0.1,2.4,0.2c0.7,0.2,1.2,0.5,1.5,1.1c0.3,0.4,0.5,0.9,0.6,1.4
			c0.1,0.5,0.2,1.2,0.2,1.9c0,1.2-0.2,2.1-0.5,2.7c-0.3,0.6-0.9,1.1-1.7,1.4L385.6,16.8z M379.1,7.4h1.6c0.5,0,0.9,0,1.2-0.1
			c0.3,0,0.6-0.2,0.8-0.3c0.2-0.1,0.3-0.2,0.4-0.4c0.1-0.1,0.2-0.3,0.2-0.4c0.1-0.2,0.1-0.3,0.1-0.6c0-0.2,0-0.5,0-0.8
			c0-0.7-0.1-1.2-0.2-1.6c-0.1-0.4-0.3-0.6-0.6-0.8c-0.1-0.1-0.3-0.1-0.4-0.2c-0.1,0-0.3-0.1-0.6-0.1c-0.2,0-0.6,0-1,0s-0.9,0-1.6,0
			V7.4z"/>
		<path class="st0" d="M396.8,16.8c0,0.2-0.1,0.3-0.2,0.4c-0.1,0.1-0.3,0.2-0.4,0.2h-6.4c-0.2,0-0.3-0.1-0.4-0.2
			c-0.1-0.1-0.2-0.3-0.2-0.4v-16c0-0.1,0.1-0.3,0.2-0.4s0.2-0.2,0.4-0.2h6.2c0.1,0,0.3,0,0.4,0.1c0.1,0.1,0.2,0.2,0.2,0.4v0.8
			c0,0.2-0.1,0.3-0.2,0.4c-0.1,0.1-0.3,0.2-0.4,0.2h-4.8v5.4h4.1c0.1,0,0.3,0,0.4,0.1c0.1,0.1,0.2,0.2,0.2,0.4v0.8
			c0,0.2-0.1,0.3-0.2,0.4c-0.1,0.1-0.3,0.2-0.4,0.2h-4.1v5.9h5c0.1,0,0.3,0,0.4,0.1c0.1,0.1,0.2,0.2,0.2,0.4V16.8z"/>
		<path class="st0" d="M132.4,38.3c0,0.2-0.1,0.3-0.2,0.4c-0.1,0.1-0.3,0.2-0.4,0.2h-4.1v7.3c0,0.1,0,0.3-0.1,0.4
			c-0.1,0.1-0.2,0.2-0.4,0.2h-0.8c-0.2,0-0.3-0.1-0.4-0.2c-0.1-0.1-0.2-0.3-0.2-0.4v-16c0-0.1,0.1-0.3,0.2-0.4
			c0.1-0.1,0.2-0.2,0.4-0.2h6.2c0.1,0,0.3,0,0.4,0.1c0.1,0.1,0.2,0.2,0.2,0.4V31c0,0.2-0.1,0.3-0.2,0.4c-0.1,0.1-0.3,0.2-0.4,0.2
			h-4.8v5.4h4.1c0.1,0,0.3,0,0.4,0.1c0.1,0.1,0.2,0.2,0.2,0.4V38.3z"/>
		<path class="st0" d="M140,47c-0.9,0-1.6-0.2-2.2-0.5c-0.5-0.3-1-0.7-1.2-1.1c-0.3-0.4-0.5-0.9-0.6-1.4c-0.1-0.5-0.2-0.9-0.2-1.3
			c-0.1-1.6-0.1-3.1-0.1-4.6c0-1.5,0-3,0.1-4.6c0-0.4,0.1-0.8,0.2-1.3c0.1-0.5,0.3-0.9,0.6-1.4c0.3-0.4,0.7-0.8,1.2-1.1
			c0.5-0.3,1.3-0.4,2.2-0.4s1.6,0.2,2.2,0.4c0.5,0.3,1,0.7,1.2,1.1c0.3,0.4,0.5,0.9,0.6,1.4c0.1,0.5,0.2,0.9,0.2,1.3
			c0.1,1.6,0.1,3.1,0.1,4.6c0,1.5,0,3-0.1,4.6c0,0.4-0.1,0.8-0.2,1.3c-0.1,0.5-0.3,1-0.6,1.4c-0.3,0.4-0.7,0.8-1.2,1.1
			C141.6,46.8,140.9,47,140,47z M140,31.3c-0.5,0-0.8,0.1-1.1,0.3c-0.3,0.2-0.5,0.4-0.7,0.7c-0.2,0.3-0.3,0.6-0.3,1
			c-0.1,0.4-0.1,0.7-0.1,1.1c-0.1,1.3-0.1,2.6-0.1,3.8c0,1.2,0,2.5,0.1,3.8c0,0.4,0.1,0.7,0.1,1.1c0.1,0.4,0.2,0.7,0.3,1
			c0.2,0.3,0.4,0.5,0.7,0.7c0.3,0.2,0.7,0.3,1.1,0.3c0.5,0,0.8-0.1,1.1-0.3c0.3-0.2,0.5-0.4,0.7-0.7c0.2-0.3,0.3-0.6,0.3-1
			c0.1-0.4,0.1-0.7,0.1-1.1c0-1.3,0.1-2.6,0.1-3.8c0-1.2,0-2.5-0.1-3.8c0-0.4-0.1-0.7-0.1-1.1c-0.1-0.4-0.2-0.7-0.3-1
			c-0.2-0.3-0.4-0.5-0.7-0.7C140.8,31.4,140.4,31.3,140,31.3z"/>
		<path class="st0" d="M156.6,46.2c0,0.1,0,0.2,0,0.4c-0.1,0.1-0.2,0.2-0.4,0.2h-1c-0.2,0-0.3,0-0.4-0.1c-0.1-0.1-0.2-0.2-0.2-0.4
			l-2.3-7.5l-2.2,0v7.5c0,0.1,0,0.3-0.1,0.4c-0.1,0.1-0.2,0.2-0.4,0.2h-0.8c-0.2,0-0.3-0.1-0.4-0.2c-0.1-0.1-0.2-0.2-0.2-0.4v-16
			c0-0.2,0.1-0.3,0.2-0.4c0.1-0.1,0.2-0.2,0.4-0.2h2.9c1,0,1.8,0.1,2.4,0.2c0.7,0.2,1.2,0.5,1.5,1.1c0.3,0.4,0.5,0.9,0.6,1.4
			c0.1,0.5,0.2,1.2,0.2,1.9c0,1.2-0.2,2.1-0.5,2.7c-0.3,0.6-0.9,1.1-1.7,1.4L156.6,46.2z M150.1,36.8h1.6c0.5,0,0.9,0,1.2-0.1
			c0.3,0,0.6-0.2,0.8-0.3c0.2-0.1,0.3-0.2,0.4-0.4c0.1-0.1,0.2-0.3,0.2-0.4c0.1-0.2,0.1-0.3,0.1-0.6c0-0.2,0-0.5,0-0.8
			c0-0.7-0.1-1.2-0.2-1.6c-0.1-0.4-0.3-0.6-0.6-0.8c-0.1-0.1-0.3-0.1-0.4-0.2c-0.1,0-0.3-0.1-0.6-0.1c-0.2,0-0.6,0-1,0
			c-0.4,0-0.9,0-1.6,0V36.8z"/>
		<path class="st0" d="M174.2,42c0,1.7-0.4,2.9-1.1,3.7c-0.8,0.8-1.8,1.2-3.2,1.2c-0.9,0-1.6-0.1-2.1-0.4c-0.5-0.3-1-0.7-1.3-1.2
			c-0.3-0.5-0.6-1-0.7-1.7c-0.1-0.6-0.2-1.3-0.2-2v-0.2c0-0.2,0-0.3,0.1-0.4c0.1-0.1,0.2-0.2,0.4-0.2h0.8c0.2,0,0.3,0.1,0.4,0.2
			c0.1,0.1,0.1,0.2,0.1,0.4v0.3c0,0.6,0.1,1.2,0.2,1.6c0.1,0.4,0.3,0.8,0.5,1c0.2,0.3,0.5,0.4,0.8,0.5c0.3,0.1,0.6,0.1,0.9,0.1
			c0.7,0,1.3-0.2,1.7-0.6c0.4-0.4,0.7-1.2,0.7-2.2c0-0.6-0.2-1.1-0.5-1.6c-0.3-0.4-0.7-0.8-1.2-1.2c-0.5-0.4-1-0.7-1.6-1.1
			c-0.5-0.4-1.1-0.8-1.6-1.2c-0.5-0.5-0.9-1-1.2-1.6c-0.3-0.6-0.5-1.3-0.5-2.1c0-0.5,0.1-1,0.3-1.5c0.2-0.5,0.4-0.9,0.8-1.3
			c0.3-0.4,0.7-0.7,1.2-0.9c0.5-0.2,1.1-0.3,1.7-0.3c0.7,0,1.2,0.1,1.7,0.3c0.5,0.2,0.9,0.5,1.2,0.9c0.3,0.4,0.6,0.8,0.8,1.2
			c0.2,0.5,0.3,0.9,0.3,1.4v0.2c0,0.2-0.1,0.3-0.2,0.4c-0.1,0.1-0.2,0.2-0.4,0.2h-0.8c-0.2,0-0.3-0.1-0.4-0.2
			c-0.1-0.1-0.2-0.2-0.2-0.4v0c0-0.6-0.2-1.1-0.5-1.5s-0.9-0.6-1.5-0.6c-0.4,0-0.7,0.1-1,0.2c-0.3,0.1-0.5,0.3-0.6,0.5
			c-0.2,0.2-0.3,0.4-0.4,0.7c-0.1,0.3-0.1,0.5-0.1,0.8c0,0.6,0.2,1.1,0.5,1.5c0.3,0.4,0.7,0.8,1.2,1.2c0.5,0.4,1,0.8,1.6,1.1
			c0.6,0.4,1.1,0.8,1.6,1.2c0.5,0.4,0.9,0.9,1.2,1.5C174,40.5,174.2,41.2,174.2,42z"/>
		<path class="st0" d="M185.4,34c0,0.2,0,0.3-0.1,0.4c-0.1,0.1-0.2,0.2-0.4,0.2H184c-0.2,0-0.3-0.1-0.4-0.2
			c-0.1-0.1-0.2-0.2-0.2-0.4v-0.3c0-0.3,0-0.6-0.1-0.9c-0.1-0.3-0.2-0.5-0.3-0.8c-0.2-0.2-0.4-0.4-0.6-0.5c-0.2-0.1-0.6-0.2-0.9-0.2
			c-0.5,0-0.9,0.1-1.2,0.2c-0.3,0.2-0.5,0.4-0.7,0.6c-0.2,0.3-0.3,0.6-0.3,0.9c-0.1,0.4-0.1,0.7-0.1,1.1c0,0.7-0.1,1.4-0.1,2
			c0,0.6,0,1.3,0,1.9c0,0.6,0,1.2,0,1.8c0,0.6,0.1,1.3,0.1,2c0,0.4,0.1,0.7,0.1,1.1c0.1,0.4,0.2,0.7,0.3,1c0.2,0.3,0.4,0.5,0.7,0.7
			c0.3,0.2,0.7,0.3,1.2,0.3c0.4,0,0.7-0.1,1-0.2c0.3-0.2,0.5-0.4,0.7-0.7c0.2-0.3,0.3-0.6,0.3-0.9c0.1-0.3,0.1-0.7,0.1-1.1v-0.9
			c0-0.2,0-0.3,0.1-0.4c0.1-0.1,0.2-0.2,0.4-0.2h0.8c0.2,0,0.3,0.1,0.4,0.2c0.1,0.1,0.2,0.2,0.2,0.4v1.6c0,0.4-0.1,0.8-0.2,1.2
			c-0.1,0.5-0.3,0.9-0.6,1.3c-0.3,0.4-0.7,0.8-1.3,1.1c-0.6,0.3-1.3,0.4-2.1,0.4c-0.9,0-1.6-0.2-2.1-0.5c-0.5-0.3-0.9-0.7-1.2-1.1
			c-0.3-0.4-0.5-0.9-0.6-1.3c-0.1-0.5-0.2-0.8-0.2-1.2c-0.1-0.8-0.1-1.6-0.1-2.4c0-0.8,0-1.5,0-2.3c0-0.8,0-1.5,0-2.3
			c0-0.8,0.1-1.6,0.1-2.4c0-0.4,0.1-0.8,0.2-1.2c0.1-0.5,0.3-0.9,0.6-1.4c0.3-0.4,0.7-0.8,1.3-1.1c0.6-0.3,1.3-0.4,2.3-0.4
			c0.8,0,1.4,0.1,1.9,0.4c0.5,0.3,0.9,0.6,1.2,1c0.3,0.4,0.5,0.8,0.6,1.2c0.1,0.4,0.1,0.8,0.1,1.1V34z"/>
		<path class="st0" d="M189.8,46.7c-0.2,0-0.3-0.1-0.4-0.2c-0.1-0.1-0.2-0.3-0.2-0.4v-16c0-0.1,0.1-0.3,0.2-0.4
			c0.1-0.1,0.2-0.2,0.4-0.2h0.8c0.2,0,0.3,0.1,0.4,0.2c0.1,0.1,0.1,0.2,0.1,0.4v16c0,0.1,0,0.3-0.1,0.4c-0.1,0.1-0.2,0.2-0.4,0.2
			H189.8z"/>
		<path class="st0" d="M203.5,46.2c0,0.2-0.1,0.3-0.2,0.4c-0.1,0.1-0.3,0.2-0.4,0.2h-6.4c-0.2,0-0.3-0.1-0.4-0.2
			c-0.1-0.1-0.2-0.3-0.2-0.4v-16c0-0.1,0.1-0.3,0.2-0.4c0.1-0.1,0.2-0.2,0.4-0.2h6.2c0.1,0,0.3,0,0.4,0.1c0.1,0.1,0.2,0.2,0.2,0.4
			V31c0,0.2-0.1,0.3-0.2,0.4c-0.1,0.1-0.3,0.2-0.4,0.2h-4.8v5.4h4.1c0.1,0,0.3,0,0.4,0.1c0.1,0.1,0.2,0.2,0.2,0.4v0.8
			c0,0.2-0.1,0.3-0.2,0.4c-0.1,0.1-0.3,0.2-0.4,0.2h-4.1v5.9h5c0.1,0,0.3,0,0.4,0.1c0.1,0.1,0.2,0.2,0.2,0.4V46.2z"/>
		<path class="st0" d="M208.5,32.6l0.4,5.1v8.4c0,0.1,0,0.3-0.1,0.4c-0.1,0.1-0.2,0.2-0.4,0.2h-0.8c-0.2,0-0.3-0.1-0.4-0.2
			c-0.1-0.1-0.2-0.2-0.2-0.4v-16c0-0.1,0.1-0.3,0.2-0.4c0.1-0.1,0.2-0.2,0.4-0.2h1.5c0.2,0,0.3,0.1,0.4,0.2c0.1,0.1,0.1,0.2,0.2,0.4
			l4.6,13.6l-0.4-4.9v-8.7c0-0.1,0-0.3,0.1-0.4c0.1-0.1,0.2-0.2,0.4-0.2h0.8c0.2,0,0.3,0.1,0.4,0.2c0.1,0.1,0.2,0.3,0.2,0.4v16
			c0,0.1-0.1,0.3-0.2,0.4c-0.1,0.1-0.2,0.2-0.4,0.2h-1.5c-0.2,0-0.3-0.1-0.4-0.2c-0.1-0.1-0.1-0.2-0.2-0.4L208.5,32.6z"/>
		<path class="st0" d="M227.9,34c0,0.2,0,0.3-0.1,0.4c-0.1,0.1-0.2,0.2-0.4,0.2h-0.8c-0.2,0-0.3-0.1-0.4-0.2
			c-0.1-0.1-0.2-0.2-0.2-0.4v-0.3c0-0.3,0-0.6-0.1-0.9c-0.1-0.3-0.2-0.5-0.3-0.8c-0.2-0.2-0.4-0.4-0.6-0.5s-0.6-0.2-0.9-0.2
			c-0.5,0-0.9,0.1-1.2,0.2c-0.3,0.2-0.5,0.4-0.7,0.6c-0.2,0.3-0.3,0.6-0.3,0.9c-0.1,0.4-0.1,0.7-0.1,1.1c0,0.7-0.1,1.4-0.1,2
			c0,0.6,0,1.3,0,1.9c0,0.6,0,1.2,0,1.8c0,0.6,0.1,1.3,0.1,2c0,0.4,0.1,0.7,0.1,1.1c0.1,0.4,0.2,0.7,0.3,1c0.2,0.3,0.4,0.5,0.7,0.7
			c0.3,0.2,0.7,0.3,1.2,0.3c0.4,0,0.7-0.1,1-0.2c0.3-0.2,0.5-0.4,0.7-0.7c0.2-0.3,0.3-0.6,0.3-0.9c0.1-0.3,0.1-0.7,0.1-1.1v-0.9
			c0-0.2,0-0.3,0.1-0.4c0.1-0.1,0.2-0.2,0.4-0.2h0.8c0.2,0,0.3,0.1,0.4,0.2c0.1,0.1,0.2,0.2,0.2,0.4v1.6c0,0.4-0.1,0.8-0.2,1.2
			c-0.1,0.5-0.3,0.9-0.6,1.3c-0.3,0.4-0.7,0.8-1.3,1.1c-0.5,0.3-1.3,0.4-2.1,0.4c-0.9,0-1.6-0.2-2.1-0.5c-0.5-0.3-0.9-0.7-1.2-1.1
			c-0.3-0.4-0.5-0.9-0.6-1.3c-0.1-0.5-0.2-0.8-0.2-1.2c-0.1-0.8-0.1-1.6-0.1-2.4c0-0.8,0-1.5,0-2.3c0-0.8,0-1.5,0-2.3
			c0-0.8,0.1-1.6,0.1-2.4c0-0.4,0.1-0.8,0.2-1.2c0.1-0.5,0.3-0.9,0.6-1.4c0.3-0.4,0.7-0.8,1.3-1.1s1.3-0.4,2.3-0.4
			c0.8,0,1.4,0.1,1.9,0.4c0.5,0.3,0.9,0.6,1.2,1c0.3,0.4,0.5,0.8,0.6,1.2c0.1,0.4,0.1,0.8,0.1,1.1V34z"/>
		<path class="st0" d="M239,46.2c0,0.2-0.1,0.3-0.2,0.4c-0.1,0.1-0.3,0.2-0.4,0.2H232c-0.2,0-0.3-0.1-0.4-0.2
			c-0.1-0.1-0.2-0.3-0.2-0.4v-16c0-0.1,0.1-0.3,0.2-0.4c0.1-0.1,0.2-0.2,0.4-0.2h6.2c0.1,0,0.3,0,0.4,0.1c0.1,0.1,0.2,0.2,0.2,0.4
			V31c0,0.2-0.1,0.3-0.2,0.4c-0.1,0.1-0.3,0.2-0.4,0.2h-4.8v5.4h4.1c0.1,0,0.3,0,0.4,0.1c0.1,0.1,0.2,0.2,0.2,0.4v0.8
			c0,0.2-0.1,0.3-0.2,0.4c-0.1,0.1-0.3,0.2-0.4,0.2h-4.1v5.9h5c0.1,0,0.3,0,0.4,0.1c0.1,0.1,0.2,0.2,0.2,0.4V46.2z"/>
		<path class="st0" d="M252.1,29.6c0.3,0,0.5,0.2,0.6,0.6l3.2,16c0,0.2,0,0.3-0.1,0.4c-0.1,0.1-0.2,0.2-0.4,0.2h-0.9
			c-0.3,0-0.5-0.2-0.6-0.6l-0.6-2.8h-3.3l-0.6,2.8c-0.1,0.4-0.3,0.6-0.6,0.6h-0.9c-0.2,0-0.3-0.1-0.4-0.2c-0.1-0.1-0.1-0.2-0.1-0.4
			l3.2-16c0-0.2,0.1-0.3,0.2-0.4c0.1-0.1,0.2-0.2,0.4-0.2H252.1z M252.9,41.4l-0.9-6l-0.3-3.3h-0.1l-0.3,3.3l-0.9,6H252.9z"/>
		<path class="st0" d="M261,32.6l0.4,5.1v8.4c0,0.1,0,0.3-0.1,0.4c-0.1,0.1-0.2,0.2-0.4,0.2H260c-0.2,0-0.3-0.1-0.4-0.2
			c-0.1-0.1-0.2-0.2-0.2-0.4v-16c0-0.1,0.1-0.3,0.2-0.4c0.1-0.1,0.2-0.2,0.4-0.2h1.5c0.2,0,0.3,0.1,0.4,0.2c0.1,0.1,0.1,0.2,0.2,0.4
			l4.6,13.6l-0.4-4.9v-8.7c0-0.1,0-0.3,0.1-0.4c0.1-0.1,0.2-0.2,0.4-0.2h0.8c0.2,0,0.3,0.1,0.4,0.2c0.1,0.1,0.2,0.3,0.2,0.4v16
			c0,0.1-0.1,0.3-0.2,0.4c-0.1,0.1-0.2,0.2-0.4,0.2h-1.5c-0.2,0-0.3-0.1-0.4-0.2c-0.1-0.1-0.1-0.2-0.2-0.4L261,32.6z"/>
		<path class="st0" d="M272.6,30.2c0-0.1,0.1-0.3,0.2-0.4c0.1-0.1,0.2-0.2,0.4-0.2h3.7c0.9,0,1.6,0.1,2.1,0.4c0.5,0.3,0.9,0.6,1.2,1
			c0.3,0.4,0.5,0.8,0.6,1.2c0.1,0.4,0.2,0.8,0.2,1.1c0.2,1.6,0.3,3.2,0.3,4.8c0,1.6-0.1,3.2-0.3,4.8c0,0.4-0.1,0.8-0.2,1.2
			c-0.1,0.4-0.3,0.9-0.6,1.2c-0.3,0.4-0.7,0.7-1.3,1c-0.6,0.3-1.3,0.4-2.3,0.4h-3.5c-0.2,0-0.3-0.1-0.4-0.2
			c-0.1-0.1-0.2-0.3-0.2-0.4V30.2z M274.5,44.8h2.3c0.5,0,0.9-0.1,1.2-0.2c0.3-0.1,0.5-0.3,0.7-0.6c0.2-0.3,0.3-0.6,0.3-0.9
			c0.1-0.3,0.1-0.7,0.2-1.1c0.2-1.4,0.2-2.7,0.2-3.9c0-1.2-0.1-2.5-0.3-3.8c0-0.4-0.1-0.7-0.2-1c-0.1-0.3-0.2-0.6-0.3-0.9
			c-0.2-0.2-0.4-0.4-0.7-0.6c-0.3-0.1-0.7-0.2-1.1-0.2h-2.3V44.8z"/>
		<path class="st0" d="M297,31c0,0.2-0.1,0.3-0.2,0.4c-0.1,0.1-0.3,0.2-0.4,0.2h-2.7v14.6c0,0.1,0,0.3-0.1,0.4
			c-0.1,0.1-0.2,0.2-0.4,0.2h-0.8c-0.2,0-0.3-0.1-0.4-0.2c-0.1-0.1-0.2-0.3-0.2-0.4V31.5h-2.8c-0.1,0-0.3-0.1-0.4-0.2
			c-0.1-0.1-0.2-0.2-0.2-0.4v-0.8c0-0.2,0.1-0.3,0.2-0.4c0.1-0.1,0.2-0.1,0.4-0.1h7.5c0.1,0,0.3,0,0.4,0.1c0.1,0.1,0.2,0.2,0.2,0.4
			V31z"/>
		<path class="st0" d="M307.6,46.2c0,0.2-0.1,0.3-0.2,0.4c-0.1,0.1-0.3,0.2-0.4,0.2h-6.4c-0.2,0-0.3-0.1-0.4-0.2
			c-0.1-0.1-0.2-0.3-0.2-0.4v-16c0-0.1,0.1-0.3,0.2-0.4c0.1-0.1,0.2-0.2,0.4-0.2h6.2c0.1,0,0.3,0,0.4,0.1c0.1,0.1,0.2,0.2,0.2,0.4
			V31c0,0.2-0.1,0.3-0.2,0.4c-0.1,0.1-0.3,0.2-0.4,0.2H302v5.4h4.1c0.1,0,0.3,0,0.4,0.1c0.1,0.1,0.2,0.2,0.2,0.4v0.8
			c0,0.2-0.1,0.3-0.2,0.4c-0.1,0.1-0.3,0.2-0.4,0.2H302v5.9h5c0.1,0,0.3,0,0.4,0.1c0.1,0.1,0.2,0.2,0.2,0.4V46.2z"/>
		<path class="st0" d="M318.7,34c0,0.2,0,0.3-0.1,0.4c-0.1,0.1-0.2,0.2-0.4,0.2h-0.8c-0.2,0-0.3-0.1-0.4-0.2
			c-0.1-0.1-0.2-0.2-0.2-0.4v-0.3c0-0.3,0-0.6-0.1-0.9c-0.1-0.3-0.2-0.5-0.3-0.8c-0.2-0.2-0.4-0.4-0.6-0.5s-0.6-0.2-0.9-0.2
			c-0.5,0-0.9,0.1-1.2,0.2c-0.3,0.2-0.5,0.4-0.7,0.6c-0.2,0.3-0.3,0.6-0.3,0.9c-0.1,0.4-0.1,0.7-0.1,1.1c0,0.7-0.1,1.4-0.1,2
			c0,0.6,0,1.3,0,1.9c0,0.6,0,1.2,0,1.8c0,0.6,0.1,1.3,0.1,2c0,0.4,0.1,0.7,0.1,1.1c0.1,0.4,0.2,0.7,0.3,1c0.2,0.3,0.4,0.5,0.7,0.7
			c0.3,0.2,0.7,0.3,1.2,0.3c0.4,0,0.7-0.1,1-0.2c0.3-0.2,0.5-0.4,0.7-0.7c0.2-0.3,0.3-0.6,0.3-0.9c0.1-0.3,0.1-0.7,0.1-1.1v-0.9
			c0-0.2,0-0.3,0.1-0.4c0.1-0.1,0.2-0.2,0.4-0.2h0.8c0.2,0,0.3,0.1,0.4,0.2c0.1,0.1,0.2,0.2,0.2,0.4v1.6c0,0.4-0.1,0.8-0.2,1.2
			c-0.1,0.5-0.3,0.9-0.6,1.3c-0.3,0.4-0.7,0.8-1.3,1.1c-0.5,0.3-1.3,0.4-2.1,0.4c-0.9,0-1.6-0.2-2.1-0.5c-0.5-0.3-0.9-0.7-1.2-1.1
			c-0.3-0.4-0.5-0.9-0.6-1.3c-0.1-0.5-0.2-0.8-0.2-1.2c-0.1-0.8-0.1-1.6-0.1-2.4c0-0.8,0-1.5,0-2.3c0-0.8,0-1.5,0-2.3
			c0-0.8,0.1-1.6,0.1-2.4c0-0.4,0.1-0.8,0.2-1.2c0.1-0.5,0.3-0.9,0.6-1.4c0.3-0.4,0.7-0.8,1.3-1.1c0.6-0.3,1.3-0.4,2.3-0.4
			c0.8,0,1.4,0.1,1.9,0.4c0.5,0.3,0.9,0.6,1.2,1c0.3,0.4,0.5,0.8,0.6,1.2c0.1,0.4,0.1,0.8,0.1,1.1V34z"/>
		<path class="st0" d="M329.3,46.7c-0.2,0-0.3-0.1-0.4-0.2c-0.1-0.1-0.2-0.3-0.2-0.4v-7.3h-4.5v7.3c0,0.1,0,0.3-0.1,0.4
			c-0.1,0.1-0.2,0.2-0.4,0.2h-0.8c-0.2,0-0.3-0.1-0.4-0.2c-0.1-0.1-0.2-0.3-0.2-0.4v-16c0-0.1,0.1-0.3,0.2-0.4
			c0.1-0.1,0.2-0.2,0.4-0.2h0.8c0.2,0,0.3,0.1,0.4,0.2c0.1,0.1,0.1,0.2,0.1,0.4v6.7h4.5v-6.7c0-0.1,0.1-0.3,0.2-0.4
			c0.1-0.1,0.2-0.2,0.4-0.2h0.8c0.2,0,0.3,0.1,0.4,0.2c0.1,0.1,0.1,0.2,0.1,0.4v16c0,0.1,0,0.3-0.1,0.4c-0.1,0.1-0.2,0.2-0.4,0.2
			H329.3z"/>
		<path class="st0" d="M336.7,32.6l0.4,5.1v8.4c0,0.1,0,0.3-0.1,0.4c-0.1,0.1-0.2,0.2-0.4,0.2h-0.8c-0.2,0-0.3-0.1-0.4-0.2
			c-0.1-0.1-0.2-0.2-0.2-0.4v-16c0-0.1,0.1-0.3,0.2-0.4c0.1-0.1,0.2-0.2,0.4-0.2h1.5c0.2,0,0.3,0.1,0.4,0.2c0.1,0.1,0.1,0.2,0.2,0.4
			l4.6,13.6l-0.4-4.9v-8.7c0-0.1,0-0.3,0.1-0.4c0.1-0.1,0.2-0.2,0.4-0.2h0.8c0.2,0,0.3,0.1,0.4,0.2c0.1,0.1,0.2,0.3,0.2,0.4v16
			c0,0.1-0.1,0.3-0.2,0.4c-0.1,0.1-0.2,0.2-0.4,0.2h-1.5c-0.2,0-0.3-0.1-0.4-0.2c-0.1-0.1-0.1-0.2-0.2-0.4L336.7,32.6z"/>
		<path class="st0" d="M352,47c-0.9,0-1.6-0.2-2.2-0.5c-0.5-0.3-1-0.7-1.2-1.1c-0.3-0.4-0.5-0.9-0.6-1.4c-0.1-0.5-0.2-0.9-0.2-1.3
			c-0.1-1.6-0.1-3.1-0.1-4.6c0-1.5,0-3,0.1-4.6c0-0.4,0.1-0.8,0.2-1.3c0.1-0.5,0.3-0.9,0.6-1.4c0.3-0.4,0.7-0.8,1.2-1.1
			c0.5-0.3,1.3-0.4,2.2-0.4s1.6,0.2,2.2,0.4c0.5,0.3,1,0.7,1.2,1.1c0.3,0.4,0.5,0.9,0.6,1.4c0.1,0.5,0.2,0.9,0.2,1.3
			c0.1,1.6,0.1,3.1,0.1,4.6c0,1.5,0,3-0.1,4.6c0,0.4-0.1,0.8-0.2,1.3c-0.1,0.5-0.3,1-0.6,1.4c-0.3,0.4-0.7,0.8-1.2,1.1
			C353.7,46.8,352.9,47,352,47z M352,31.3c-0.5,0-0.8,0.1-1.1,0.3c-0.3,0.2-0.5,0.4-0.7,0.7c-0.2,0.3-0.3,0.6-0.3,1
			c-0.1,0.4-0.1,0.7-0.1,1.1c-0.1,1.3-0.1,2.6-0.1,3.8c0,1.2,0,2.5,0.1,3.8c0,0.4,0.1,0.7,0.1,1.1c0.1,0.4,0.2,0.7,0.3,1
			c0.2,0.3,0.4,0.5,0.7,0.7c0.3,0.2,0.7,0.3,1.1,0.3c0.5,0,0.8-0.1,1.1-0.3c0.3-0.2,0.5-0.4,0.7-0.7c0.2-0.3,0.3-0.6,0.3-1
			c0.1-0.4,0.1-0.7,0.1-1.1c0-1.3,0.1-2.6,0.1-3.8c0-1.2,0-2.5-0.1-3.8c0-0.4-0.1-0.7-0.1-1.1c-0.1-0.4-0.2-0.7-0.3-1
			c-0.2-0.3-0.4-0.5-0.7-0.7C352.9,31.4,352.5,31.3,352,31.3z"/>
		<path class="st0" d="M367.4,46.2c0,0.2-0.1,0.3-0.2,0.4c-0.1,0.1-0.3,0.2-0.4,0.2h-6c-0.2,0-0.3-0.1-0.4-0.2
			c-0.1-0.1-0.2-0.3-0.2-0.4v-16c0-0.1,0.1-0.3,0.2-0.4c0.1-0.1,0.2-0.2,0.4-0.2h0.8c0.2,0,0.3,0.1,0.4,0.2c0.1,0.1,0.1,0.2,0.1,0.4
			v14.6h4.7c0.1,0,0.3,0,0.4,0.1c0.1,0.1,0.2,0.2,0.2,0.4V46.2z"/>
		<path class="st0" d="M373.1,47c-0.9,0-1.6-0.2-2.2-0.5c-0.5-0.3-1-0.7-1.2-1.1c-0.3-0.4-0.5-0.9-0.6-1.4c-0.1-0.5-0.2-0.9-0.2-1.3
			c-0.1-1.6-0.1-3.1-0.1-4.6c0-1.5,0-3,0.1-4.6c0-0.4,0.1-0.8,0.2-1.3c0.1-0.5,0.3-0.9,0.6-1.4c0.3-0.4,0.7-0.8,1.2-1.1
			c0.5-0.3,1.3-0.4,2.2-0.4c0.9,0,1.6,0.2,2.2,0.4c0.5,0.3,1,0.7,1.2,1.1s0.5,0.9,0.6,1.4c0.1,0.5,0.2,0.9,0.2,1.3
			c0.1,1.6,0.1,3.1,0.1,4.6c0,1.5,0,3-0.1,4.6c0,0.4-0.1,0.8-0.2,1.3c-0.1,0.5-0.3,1-0.6,1.4c-0.3,0.4-0.7,0.8-1.2,1.1
			C374.8,46.8,374,47,373.1,47z M373.1,31.3c-0.5,0-0.8,0.1-1.1,0.3c-0.3,0.2-0.5,0.4-0.7,0.7c-0.2,0.3-0.3,0.6-0.3,1
			c-0.1,0.4-0.1,0.7-0.1,1.1c-0.1,1.3-0.1,2.6-0.1,3.8c0,1.2,0,2.5,0.1,3.8c0,0.4,0.1,0.7,0.1,1.1c0.1,0.4,0.2,0.7,0.3,1
			c0.2,0.3,0.4,0.5,0.7,0.7c0.3,0.2,0.7,0.3,1.1,0.3c0.4,0,0.8-0.1,1.1-0.3c0.3-0.2,0.5-0.4,0.7-0.7c0.2-0.3,0.3-0.6,0.3-1
			c0.1-0.4,0.1-0.7,0.1-1.1c0-1.3,0.1-2.6,0.1-3.8c0-1.2,0-2.5-0.1-3.8c0-0.4-0.1-0.7-0.1-1.1c-0.1-0.4-0.2-0.7-0.3-1
			c-0.2-0.3-0.4-0.5-0.7-0.7C374,31.4,373.6,31.3,373.1,31.3z"/>
		<path class="st0" d="M389,37.4v8.8c0,0.1-0.1,0.3-0.2,0.4c-0.1,0.1-0.2,0.2-0.4,0.2h-0.7c-0.2,0-0.3,0-0.4-0.1
			c-0.1-0.1-0.1-0.2-0.1-0.3l0-0.2c-0.3,0.3-0.7,0.6-1,0.7c-0.4,0.1-0.8,0.2-1.2,0.2c-0.8,0-1.5-0.2-2-0.5c-0.5-0.3-0.9-0.7-1.2-1.2
			c-0.3-0.5-0.5-0.9-0.6-1.4c-0.1-0.5-0.2-0.9-0.2-1.2c-0.1-1.5-0.2-2.9-0.2-4.4c0-1.5,0.1-3,0.2-4.4c0-0.5,0.1-0.9,0.2-1.5
			c0.1-0.5,0.3-1,0.6-1.4c0.3-0.4,0.7-0.8,1.2-1.1c0.5-0.3,1.2-0.4,2.1-0.4c0.9,0,1.6,0.2,2.2,0.5c0.5,0.3,0.9,0.7,1.2,1.1
			c0.3,0.4,0.4,0.9,0.5,1.3c0.1,0.5,0.1,0.8,0.1,1.1v0.3c0,0.1,0,0.3-0.1,0.4c-0.1,0.1-0.2,0.2-0.4,0.2h-0.8c-0.2,0-0.3-0.1-0.4-0.2
			c-0.1-0.1-0.1-0.2-0.1-0.4c0-0.3,0-0.5,0-0.8c0-0.3-0.1-0.5-0.2-0.8c-0.1-0.2-0.3-0.4-0.6-0.6c-0.3-0.2-0.7-0.2-1.2-0.2
			c-0.4,0-0.8,0.1-1,0.2c-0.3,0.1-0.5,0.3-0.6,0.6c-0.1,0.3-0.2,0.5-0.3,0.9c-0.1,0.3-0.1,0.7-0.1,1.1c-0.1,1.4-0.2,2.8-0.1,4.1
			c0,1.3,0.1,2.7,0.2,4c0.1,1,0.3,1.7,0.6,2.1c0.3,0.5,0.8,0.7,1.4,0.7c0.5,0,0.9-0.1,1.1-0.3c0.3-0.2,0.5-0.4,0.6-0.7
			c0.1-0.3,0.2-0.6,0.3-1c0-0.4,0.1-0.7,0.1-1.1v-2.6H385c-0.1,0-0.3-0.1-0.4-0.2c-0.1-0.1-0.2-0.2-0.2-0.4v-0.8
			c0-0.2,0.1-0.3,0.2-0.4c0.1-0.1,0.2-0.1,0.4-0.1H389z"/>
		<path class="st0" d="M395.7,46.7c-0.2,0-0.3-0.1-0.4-0.2c-0.1-0.1-0.2-0.3-0.2-0.4v-7.3l-3.2-8.7c-0.1-0.1,0-0.3,0-0.4
			c0.1-0.1,0.2-0.2,0.4-0.2h1c0.2,0,0.3,0,0.4,0.1c0.1,0.1,0.2,0.2,0.2,0.4l2,6.3l2.2-6.3c0.1-0.2,0.1-0.3,0.2-0.4
			c0.1-0.1,0.2-0.1,0.4-0.1h1.1c0.2,0,0.3,0.1,0.4,0.2c0.1,0.1,0.1,0.2,0,0.4l-3.3,8.7v7.3c0,0.1,0,0.3-0.1,0.4
			c-0.1,0.1-0.2,0.2-0.4,0.2H395.7z"/>
		<path class="st0" d="M127.4,71.7c0,0.4,0,0.7,0.1,1.1c0.1,0.3,0.2,0.6,0.3,0.9c0.2,0.3,0.4,0.5,0.7,0.7c0.3,0.2,0.7,0.2,1.2,0.2
			c0.5,0,0.9-0.1,1.2-0.2c0.3-0.2,0.5-0.4,0.7-0.7c0.2-0.3,0.3-0.6,0.3-0.9c0-0.3,0.1-0.7,0.1-1.1v-12c0-0.2,0-0.3,0.1-0.4
			c0.1-0.1,0.2-0.2,0.4-0.2h0.8c0.2,0,0.3,0.1,0.4,0.2c0.1,0.1,0.2,0.2,0.2,0.4v12.7c0,0.4,0,0.8-0.1,1.2c-0.1,0.5-0.3,0.9-0.6,1.3
			c-0.3,0.4-0.7,0.8-1.3,1.1c-0.6,0.3-1.3,0.4-2.3,0.4c-0.9,0-1.6-0.1-2.1-0.4c-0.5-0.3-0.9-0.6-1.2-1c-0.3-0.4-0.5-0.8-0.6-1.3
			c-0.1-0.4-0.1-0.8-0.1-1.1V59.7c0-0.2,0-0.3,0.1-0.4c0.1-0.1,0.2-0.2,0.4-0.2h0.8c0.2,0,0.3,0.1,0.4,0.2c0.1,0.1,0.2,0.2,0.2,0.4
			V71.7z"/>
		<path class="st0" d="M139.5,62.2l0.4,5.1v8.4c0,0.1,0,0.3-0.1,0.4c-0.1,0.1-0.2,0.2-0.4,0.2h-0.8c-0.2,0-0.3-0.1-0.4-0.2
			c-0.1-0.1-0.2-0.2-0.2-0.4v-16c0-0.1,0.1-0.3,0.2-0.4c0.1-0.1,0.2-0.2,0.4-0.2h1.5c0.2,0,0.3,0.1,0.4,0.2c0.1,0.1,0.1,0.2,0.2,0.4
			l4.6,13.6l-0.4-4.9v-8.7c0-0.1,0-0.3,0.1-0.4c0.1-0.1,0.2-0.2,0.4-0.2h0.8c0.2,0,0.3,0.1,0.4,0.2c0.1,0.1,0.2,0.3,0.2,0.4v16
			c0,0.1-0.1,0.3-0.2,0.4c-0.1,0.1-0.2,0.2-0.4,0.2h-1.5c-0.2,0-0.3-0.1-0.4-0.2c-0.1-0.1-0.1-0.2-0.2-0.4L139.5,62.2z"/>
		<path class="st0" d="M152,76.3c-0.2,0-0.3-0.1-0.4-0.2c-0.1-0.1-0.2-0.3-0.2-0.4v-16c0-0.1,0.1-0.3,0.2-0.4
			c0.1-0.1,0.2-0.2,0.4-0.2h0.8c0.2,0,0.3,0.1,0.4,0.2c0.1,0.1,0.1,0.2,0.1,0.4v16c0,0.1,0,0.3-0.1,0.4c-0.1,0.1-0.2,0.2-0.4,0.2
			H152z"/>
		<path class="st0" d="M160.4,76.3c-0.3,0-0.5-0.2-0.6-0.6l-3.3-16c0-0.2,0-0.3,0.1-0.4c0.1-0.1,0.2-0.2,0.4-0.2h0.9
			c0.3,0,0.5,0.2,0.6,0.6l1,5.2l1.3,7.7l1.3-7.7l1-5.2c0.1-0.4,0.3-0.6,0.6-0.6h0.9c0.2,0,0.3,0.1,0.4,0.2c0.1,0.1,0.1,0.2,0.1,0.4
			l-3.3,16c-0.1,0.4-0.3,0.6-0.6,0.6H160.4z"/>
		<path class="st0" d="M176.2,75.7c0,0.2-0.1,0.3-0.2,0.4c-0.1,0.1-0.3,0.2-0.4,0.2h-6.4c-0.2,0-0.3-0.1-0.4-0.2
			c-0.1-0.1-0.2-0.3-0.2-0.4v-16c0-0.1,0.1-0.3,0.2-0.4c0.1-0.1,0.2-0.2,0.4-0.2h6.2c0.1,0,0.3,0,0.4,0.1c0.1,0.1,0.2,0.2,0.2,0.4
			v0.8c0,0.2-0.1,0.3-0.2,0.4c-0.1,0.1-0.3,0.2-0.4,0.2h-4.8v5.4h4.1c0.1,0,0.3,0,0.4,0.1c0.1,0.1,0.2,0.2,0.2,0.4v0.8
			c0,0.2-0.1,0.3-0.2,0.4c-0.1,0.1-0.3,0.2-0.4,0.2h-4.1v5.9h5c0.1,0,0.3,0,0.4,0.1c0.1,0.1,0.2,0.2,0.2,0.4V75.7z"/>
		<path class="st0" d="M188.1,75.7c0,0.1,0,0.2,0,0.4c-0.1,0.1-0.2,0.2-0.4,0.2h-1c-0.2,0-0.3,0-0.4-0.1c-0.1-0.1-0.2-0.2-0.2-0.4
			l-2.3-7.5l-2.2,0v7.5c0,0.1,0,0.3-0.1,0.4c-0.1,0.1-0.2,0.2-0.4,0.2h-0.8c-0.2,0-0.3-0.1-0.4-0.2s-0.2-0.2-0.2-0.4v-16
			c0-0.2,0.1-0.3,0.2-0.4c0.1-0.1,0.2-0.2,0.4-0.2h2.9c1,0,1.8,0.1,2.4,0.2c0.7,0.2,1.2,0.5,1.5,1.1c0.3,0.4,0.5,0.9,0.6,1.4
			c0.1,0.5,0.2,1.2,0.2,1.9c0,1.2-0.2,2.1-0.5,2.7c-0.3,0.6-0.9,1.1-1.7,1.4L188.1,75.7z M181.5,66.3h1.6c0.5,0,0.9,0,1.2-0.1
			c0.3,0,0.6-0.2,0.8-0.3c0.2-0.1,0.3-0.2,0.4-0.4c0.1-0.1,0.2-0.3,0.2-0.4c0.1-0.2,0.1-0.3,0.1-0.6c0-0.2,0-0.5,0-0.8
			c0-0.7-0.1-1.2-0.2-1.6c-0.1-0.4-0.3-0.6-0.6-0.8c-0.1-0.1-0.3-0.1-0.4-0.2c-0.1,0-0.3-0.1-0.6-0.1c-0.2,0-0.6,0-1,0s-0.9,0-1.6,0
			V66.3z"/>
		<path class="st0" d="M199.3,71.6c0,1.7-0.4,2.9-1.1,3.7c-0.8,0.8-1.8,1.2-3.2,1.2c-0.9,0-1.6-0.1-2.1-0.4c-0.6-0.3-1-0.7-1.3-1.2
			c-0.3-0.5-0.6-1-0.7-1.7c-0.1-0.6-0.2-1.3-0.2-2v-0.2c0-0.2,0-0.3,0.1-0.4c0.1-0.1,0.2-0.2,0.4-0.2h0.8c0.2,0,0.3,0.1,0.4,0.2
			c0.1,0.1,0.1,0.2,0.1,0.4v0.3c0,0.6,0.1,1.2,0.2,1.6c0.1,0.4,0.3,0.8,0.5,1c0.2,0.3,0.5,0.4,0.8,0.5c0.3,0.1,0.6,0.1,0.9,0.1
			c0.7,0,1.3-0.2,1.7-0.6c0.4-0.4,0.7-1.2,0.7-2.2c0-0.6-0.2-1.1-0.5-1.6c-0.3-0.4-0.7-0.8-1.2-1.2c-0.5-0.4-1-0.7-1.6-1.1
			c-0.6-0.4-1.1-0.8-1.6-1.2c-0.5-0.5-0.9-1-1.2-1.6c-0.3-0.6-0.5-1.3-0.5-2.1c0-0.5,0.1-1,0.3-1.5c0.2-0.5,0.4-0.9,0.8-1.3
			c0.3-0.4,0.7-0.7,1.2-0.9c0.5-0.2,1.1-0.3,1.7-0.3c0.7,0,1.2,0.1,1.7,0.3c0.5,0.2,0.9,0.5,1.2,0.9c0.3,0.4,0.6,0.8,0.8,1.2
			c0.2,0.5,0.3,0.9,0.3,1.4V63c0,0.2-0.1,0.3-0.2,0.4c-0.1,0.1-0.2,0.2-0.4,0.2h-0.8c-0.2,0-0.3-0.1-0.4-0.2
			c-0.1-0.1-0.2-0.2-0.2-0.4v0c0-0.6-0.2-1.1-0.5-1.5c-0.4-0.4-0.9-0.6-1.5-0.6c-0.4,0-0.7,0.1-1,0.2c-0.3,0.1-0.5,0.3-0.6,0.5
			c-0.2,0.2-0.3,0.4-0.4,0.7c-0.1,0.3-0.1,0.5-0.1,0.8c0,0.6,0.2,1.1,0.5,1.5c0.3,0.4,0.7,0.8,1.2,1.2c0.5,0.4,1,0.8,1.6,1.1
			c0.5,0.4,1.1,0.8,1.6,1.2c0.5,0.4,0.9,0.9,1.2,1.5C199.2,70.1,199.3,70.8,199.3,71.6z"/>
		<path class="st0" d="M203.7,76.3c-0.2,0-0.3-0.1-0.4-0.2c-0.1-0.1-0.2-0.3-0.2-0.4v-16c0-0.1,0.1-0.3,0.2-0.4
			c0.1-0.1,0.2-0.2,0.4-0.2h0.8c0.2,0,0.3,0.1,0.4,0.2c0.1,0.1,0.1,0.2,0.1,0.4v16c0,0.1,0,0.3-0.1,0.4c-0.1,0.1-0.2,0.2-0.4,0.2
			H203.7z"/>
		<path class="st0" d="M217,60.6c0,0.2-0.1,0.3-0.2,0.4c-0.1,0.1-0.3,0.2-0.4,0.2h-2.7v14.6c0,0.1,0,0.3-0.1,0.4
			c-0.1,0.1-0.2,0.2-0.4,0.2h-0.8c-0.2,0-0.3-0.1-0.4-0.2c-0.1-0.1-0.2-0.3-0.2-0.4V61.1H209c-0.1,0-0.3-0.1-0.4-0.2
			c-0.1-0.1-0.2-0.2-0.2-0.4v-0.8c0-0.2,0.1-0.3,0.2-0.4c0.1-0.1,0.2-0.1,0.4-0.1h7.5c0.1,0,0.3,0,0.4,0.1c0.1,0.1,0.2,0.2,0.2,0.4
			V60.6z"/>
		<path class="st0" d="M222.5,76.3c-0.2,0-0.3-0.1-0.4-0.2c-0.1-0.1-0.2-0.3-0.2-0.4v-7.3l-3.2-8.7c-0.1-0.1,0-0.3,0-0.4
			c0.1-0.1,0.2-0.2,0.4-0.2h1c0.2,0,0.3,0,0.4,0.1c0.1,0.1,0.2,0.2,0.2,0.4l2,6.3l2.2-6.3c0.1-0.2,0.1-0.3,0.2-0.4
			c0.1-0.1,0.2-0.1,0.4-0.1h1.1c0.2,0,0.3,0.1,0.4,0.2c0.1,0.1,0.1,0.2,0,0.4l-3.3,8.7v7.3c0,0.1,0,0.3-0.1,0.4
			c-0.1,0.1-0.2,0.2-0.4,0.2H222.5z"/>
		<path class="st0" d="M244,75.7c0,0.2-0.1,0.3-0.2,0.4c-0.1,0.1-0.3,0.2-0.4,0.2h-6c-0.2,0-0.3-0.1-0.4-0.2
			c-0.1-0.1-0.2-0.3-0.2-0.4v-16c0-0.1,0.1-0.3,0.2-0.4c0.1-0.1,0.2-0.2,0.4-0.2h0.8c0.2,0,0.3,0.1,0.4,0.2c0.1,0.1,0.1,0.2,0.1,0.4
			v14.6h4.7c0.1,0,0.3,0,0.4,0.1c0.1,0.1,0.2,0.2,0.2,0.4V75.7z"/>
		<path class="st0" d="M247.8,76.3c-0.2,0-0.3-0.1-0.4-0.2s-0.2-0.3-0.2-0.4v-16c0-0.1,0.1-0.3,0.2-0.4s0.2-0.2,0.4-0.2h0.8
			c0.2,0,0.3,0.1,0.4,0.2c0.1,0.1,0.1,0.2,0.1,0.4v16c0,0.1,0,0.3-0.1,0.4c-0.1,0.1-0.2,0.2-0.4,0.2H247.8z"/>
		<path class="st0" d="M257.3,59.2c0.7,0,1.3,0,1.8,0.1c0.5,0.1,0.9,0.2,1.3,0.4c0.6,0.3,1,0.8,1.3,1.5c0.3,0.7,0.4,1.4,0.4,2.1
			c0,1.3-0.1,2.2-0.4,2.7c-0.2,0.3-0.4,0.6-0.5,0.8c-0.2,0.2-0.4,0.3-0.7,0.5c0.7,0.2,1.2,0.7,1.5,1.3c0.3,0.6,0.5,1.5,0.5,2.6
			c0,0.6,0,1.3-0.1,1.9c-0.1,0.6-0.3,1.2-0.6,1.7c-0.3,0.5-0.7,0.9-1.3,1.2c-0.6,0.3-1.4,0.5-2.3,0.5h-3.5c-0.2,0-0.3-0.1-0.4-0.2
			c-0.1-0.1-0.2-0.3-0.2-0.4v-16c0-0.2,0.1-0.3,0.2-0.4c0.1-0.1,0.2-0.1,0.4-0.1H257.3z M255.9,66.3h1.5c0.4,0,0.7,0,1.1-0.1
			c0.3,0,0.6-0.2,0.9-0.3c0.2-0.2,0.4-0.5,0.6-0.9c0.1-0.4,0.2-1,0.2-1.7c0-0.5-0.1-1-0.2-1.2c-0.1-0.3-0.3-0.5-0.6-0.7
			c-0.2-0.2-0.6-0.2-0.9-0.3c-0.4,0-0.7,0-1.2,0h-1.3V66.3z M255.9,68.3v6.1h2c0.4,0,0.8,0,1.1-0.1c0.3-0.1,0.6-0.3,0.8-0.5
			c0.2-0.2,0.4-0.6,0.5-1c0.1-0.4,0.2-1,0.2-1.7c0-0.6-0.1-1-0.2-1.4c-0.1-0.4-0.3-0.6-0.6-0.8c-0.3-0.2-0.6-0.3-1-0.4
			c-0.4-0.1-0.8-0.1-1.3-0.1H255.9z"/>
		<path class="st0" d="M274.7,75.7c0,0.1,0,0.2,0,0.4c-0.1,0.1-0.2,0.2-0.4,0.2h-1c-0.2,0-0.3,0-0.4-0.1c-0.1-0.1-0.2-0.2-0.2-0.4
			l-2.3-7.5l-2.2,0v7.5c0,0.1,0,0.3-0.1,0.4c-0.1,0.1-0.2,0.2-0.4,0.2h-0.8c-0.2,0-0.3-0.1-0.4-0.2c-0.1-0.1-0.2-0.2-0.2-0.4v-16
			c0-0.2,0.1-0.3,0.2-0.4c0.1-0.1,0.2-0.2,0.4-0.2h2.9c1,0,1.8,0.1,2.4,0.2c0.7,0.2,1.2,0.5,1.5,1.1c0.3,0.4,0.5,0.9,0.6,1.4
			c0.1,0.5,0.2,1.2,0.2,1.9c0,1.2-0.2,2.1-0.5,2.7c-0.3,0.6-0.9,1.1-1.7,1.4L274.7,75.7z M268.2,66.3h1.6c0.5,0,0.9,0,1.2-0.1
			c0.3,0,0.6-0.2,0.8-0.3c0.2-0.1,0.3-0.2,0.4-0.4c0.1-0.1,0.2-0.3,0.2-0.4c0.1-0.2,0.1-0.3,0.1-0.6c0-0.2,0-0.5,0-0.8
			c0-0.7-0.1-1.2-0.2-1.6c-0.1-0.4-0.3-0.6-0.6-0.8c-0.1-0.1-0.3-0.1-0.4-0.2c-0.1,0-0.3-0.1-0.6-0.1c-0.2,0-0.6,0-1,0s-0.9,0-1.6,0
			V66.3z"/>
		<path class="st0" d="M282.3,59.2c0.3,0,0.5,0.2,0.6,0.6l3.2,16c0,0.2,0,0.3-0.1,0.4c-0.1,0.1-0.2,0.2-0.4,0.2h-0.9
			c-0.3,0-0.5-0.2-0.6-0.6l-0.6-2.8h-3.3l-0.6,2.8c-0.1,0.4-0.3,0.6-0.6,0.6H278c-0.2,0-0.3-0.1-0.4-0.2c-0.1-0.1-0.1-0.2-0.1-0.4
			l3.2-16c0-0.2,0.1-0.3,0.2-0.4c0.1-0.1,0.2-0.2,0.4-0.2H282.3z M283.1,71l-0.9-6l-0.3-3.3h-0.1l-0.3,3.3l-0.9,6H283.1z"/>
		<path class="st0" d="M298.1,75.7c0,0.1,0,0.2,0,0.4c-0.1,0.1-0.2,0.2-0.4,0.2h-1c-0.2,0-0.3,0-0.4-0.1c-0.1-0.1-0.2-0.2-0.2-0.4
			l-2.3-7.5l-2.2,0v7.5c0,0.1,0,0.3-0.1,0.4c-0.1,0.1-0.2,0.2-0.4,0.2h-0.8c-0.2,0-0.3-0.1-0.4-0.2c-0.1-0.1-0.2-0.2-0.2-0.4v-16
			c0-0.2,0.1-0.3,0.2-0.4c0.1-0.1,0.2-0.2,0.4-0.2h2.9c1,0,1.8,0.1,2.4,0.2c0.7,0.2,1.2,0.5,1.5,1.1c0.3,0.4,0.5,0.9,0.6,1.4
			c0.1,0.5,0.2,1.2,0.2,1.9c0,1.2-0.2,2.1-0.5,2.7c-0.3,0.6-0.9,1.1-1.7,1.4L298.1,75.7z M291.6,66.3h1.6c0.5,0,0.9,0,1.2-0.1
			c0.3,0,0.6-0.2,0.8-0.3c0.2-0.1,0.3-0.2,0.4-0.4c0.1-0.1,0.2-0.3,0.2-0.4c0.1-0.2,0.1-0.3,0.1-0.6c0-0.2,0-0.5,0-0.8
			c0-0.7-0.1-1.2-0.2-1.6c-0.1-0.4-0.3-0.6-0.6-0.8c-0.1-0.1-0.3-0.1-0.4-0.2c-0.1,0-0.3-0.1-0.6-0.1c-0.2,0-0.6,0-1,0s-0.9,0-1.6,0
			V66.3z"/>
		<path class="st0" d="M303.8,76.3c-0.2,0-0.3-0.1-0.4-0.2c-0.1-0.1-0.2-0.3-0.2-0.4v-7.3l-3.2-8.7c-0.1-0.1,0-0.3,0-0.4
			c0.1-0.1,0.2-0.2,0.4-0.2h1c0.2,0,0.3,0,0.4,0.1c0.1,0.1,0.2,0.2,0.2,0.4l2,6.3l2.2-6.3c0.1-0.2,0.1-0.3,0.2-0.4
			c0.1-0.1,0.2-0.1,0.4-0.1h1.1c0.2,0,0.3,0.1,0.4,0.2c0.1,0.1,0.1,0.2,0,0.4l-3.3,8.7v7.3c0,0.1,0,0.3-0.1,0.4
			c-0.1,0.1-0.2,0.2-0.4,0.2H303.8z"/>
	</g>
</g>
</svg>
